<?xml version="1.0" encoding="UTF-8" standalone="no"?>
<!DOCTYPE svg PUBLIC "-//W3C//DTD SVG 1.1//EN"
 "http://www.w3.org/Graphics/SVG/1.1/DTD/svg11.dtd">
<!-- Generated by graphviz version 2.40.1 (20161225.0304)
 -->
<!-- Title: dependency&#45;cruiser output Pages: 1 -->
<svg width="207pt" height="274pt"
 viewBox="0.00 0.00 207.00 274.00" xmlns="http://www.w3.org/2000/svg" xmlns:xlink="http://www.w3.org/1999/xlink">
<g id="graph0" class="graph" transform="scale(1 1) rotate(0) translate(4 270)">
<title>dependency&#45;cruiser output</title>
<polygon fill="#ffffff" stroke="transparent" points="-4,4 -4,-270 203,-270 203,4 -4,4"/>
<g id="clust1" class="cluster">
<title>cluster_src</title>
<path fill="#ffffff" stroke="#000000" stroke-width="2" d="M20,-116C20,-116 179,-116 179,-116 185,-116 191,-122 191,-128 191,-128 191,-246 191,-246 191,-252 185,-258 179,-258 179,-258 20,-258 20,-258 14,-258 8,-252 8,-246 8,-246 8,-128 8,-128 8,-122 14,-116 20,-116"/>
<text text-anchor="middle" x="99.5" y="-246.8" font-family="Helvetica,sans-Serif" font-weight="bold" font-size="9.00" fill="#000000">src</text>
</g>
<g id="clust2" class="cluster">
<title>cluster_src/unit&#45;test&#45;examples</title>
<path fill="#ffffff" stroke="#000000" stroke-width="2" d="M30,-180C30,-180 171,-180 171,-180 177,-180 183,-186 183,-192 183,-192 183,-220 183,-220 183,-226 177,-232 171,-232 171,-232 30,-232 30,-232 24,-232 18,-226 18,-220 18,-220 18,-192 18,-192 18,-186 24,-180 30,-180"/>
<text text-anchor="middle" x="100.5" y="-220.8" font-family="Helvetica,sans-Serif" font-weight="bold" font-size="9.00" fill="#000000">unit&#45;test&#45;examples</text>
</g>
<!-- body&#45;parser -->
<g id="node1" class="node">
<title>body&#45;parser</title>
<path fill="#ffffcc" stroke="#ff0000" d="M175,-48C175,-48 121,-48 121,-48 118,-48 115,-45 115,-42 115,-42 115,-36 115,-36 115,-33 118,-30 121,-30 121,-30 175,-30 175,-30 178,-30 181,-33 181,-36 181,-36 181,-42 181,-42 181,-45 178,-48 175,-48"/>
<text text-anchor="middle" x="148" y="-36.8" font-family="Helvetica,sans-Serif" font-size="9.00" fill="#ff0000">body&#45;parser</text>
</g>
<!-- chai -->
<g id="node2" class="node">
<title>chai</title>
<path fill="#ffffcc" stroke="#ff0000" d="M169,-108C169,-108 127,-108 127,-108 124,-108 121,-105 121,-102 121,-102 121,-96 121,-96 121,-93 124,-90 127,-90 127,-90 169,-90 169,-90 172,-90 175,-93 175,-96 175,-96 175,-102 175,-102 175,-105 172,-108 169,-108"/>
<text text-anchor="middle" x="148" y="-96.8" font-family="Helvetica,sans-Serif" font-size="9.00" fill="#ff0000">chai</text>
</g>
<!-- express -->
<g id="node3" class="node">
<title>express</title>
<path fill="#ffffcc" stroke="#ff0000" d="M169,-18C169,-18 127,-18 127,-18 124,-18 121,-15 121,-12 121,-12 121,-6 121,-6 121,-3 124,0 127,0 127,0 169,0 169,0 172,0 175,-3 175,-6 175,-6 175,-12 175,-12 175,-15 172,-18 169,-18"/>
<text text-anchor="middle" x="148" y="-6.8" font-family="Helvetica,sans-Serif" font-size="9.00" fill="#ff0000">express</text>
</g>
<!-- mocha -->
<g id="node4" class="node">
<title>mocha</title>
<path fill="#ffffcc" stroke="#ff0000" d="M169,-78C169,-78 127,-78 127,-78 124,-78 121,-75 121,-72 121,-72 121,-66 121,-66 121,-63 124,-60 127,-60 127,-60 169,-60 169,-60 172,-60 175,-63 175,-66 175,-66 175,-72 175,-72 175,-75 172,-78 169,-78"/>
<text text-anchor="middle" x="148" y="-66.8" font-family="Helvetica,sans-Serif" font-size="9.00" fill="#ff0000">mocha</text>
</g>
<!-- src/cars.ts -->
<g id="node5" class="node">
<title>src/cars.ts</title>
<g id="a_node5"><a xlink:href="src/cars.ts" xlink:title="cars.ts">
<path fill="#ddfeff" stroke="#000000" d="M169,-157C169,-157 127,-157 127,-157 124,-157 121,-154 121,-151 121,-151 121,-145 121,-145 121,-142 124,-139 127,-139 127,-139 169,-139 169,-139 172,-139 175,-142 175,-145 175,-145 175,-151 175,-151 175,-154 172,-157 169,-157"/>
<text text-anchor="middle" x="148" y="-145.8" font-family="Helvetica,sans-Serif" font-size="9.00" fill="#000000">cars.ts</text>
</a>
</g>
</g>
<!-- src/server.solution.ts -->
<g id="node6" class="node">
<title>src/server.solution.ts</title>
<g id="a_node6"><a xlink:href="src/server.solution.ts" xlink:title="server.solution.ts">
<path fill="#ddfeff" stroke="#000000" d="M96,-172C96,-172 22,-172 22,-172 19,-172 16,-169 16,-166 16,-166 16,-160 16,-160 16,-157 19,-154 22,-154 22,-154 96,-154 96,-154 99,-154 102,-157 102,-160 102,-160 102,-166 102,-166 102,-169 99,-172 96,-172"/>
<text text-anchor="middle" x="59" y="-160.8" font-family="Helvetica,sans-Serif" font-size="9.00" fill="#000000">server.solution.ts</text>
</a>
</g>
</g>
<!-- src/server.solution.ts&#45;&gt;body&#45;parser -->
<g id="edge2" class="edge">
<title>src/server.solution.ts&#45;&gt;body&#45;parser</title>
<path fill="none" stroke="#000000" stroke-width="2" stroke-opacity="0.200000" d="M95.2972,-153.9497C97.8101,-152.289 100.0962,-150.3242 102,-148 126.7419,-117.7946 95.2044,-91.9281 115.3977,-56.6973"/>
<polygon fill="#000000" fill-opacity="0.200000" stroke="#000000" stroke-width="2" stroke-opacity="0.200000" points="118.5621,-58.2694 121.3073,-48.0364 112.7799,-54.324 118.5621,-58.2694"/>
</g>
<!-- src/server.solution.ts&#45;&gt;express -->
<g id="edge3" class="edge">
<title>src/server.solution.ts&#45;&gt;express</title>
<path fill="none" stroke="#000000" stroke-width="2" stroke-opacity="0.200000" d="M95.773,-153.7502C98.1125,-152.1318 100.2329,-150.2314 102,-148 134.4539,-107.0199 88.4197,-73.0181 115.2634,-26.6841"/>
<polygon fill="#000000" fill-opacity="0.200000" stroke="#000000" stroke-width="2" stroke-opacity="0.200000" points="118.2842,-28.4626 120.9195,-18.2007 112.46,-24.5794 118.2842,-28.4626"/>
</g>
<!-- src/server.solution.ts&#45;&gt;src/cars.ts -->
<g id="edge1" class="edge">
<title>src/server.solution.ts&#45;&gt;src/cars.ts</title>
<path fill="none" stroke="#000000" stroke-width="2" stroke-opacity="0.200000" d="M102.1965,-155.7197C105.0863,-155.2326 107.9835,-154.7444 110.8392,-154.2631"/>
<polygon fill="#000000" fill-opacity="0.200000" stroke="#000000" stroke-width="2" stroke-opacity="0.200000" points="111.6327,-157.6788 120.9119,-152.5654 110.4692,-150.7761 111.6327,-157.6788"/>
</g>
<!-- src/server.ts -->
<g id="node7" class="node">
<title>src/server.ts</title>
<g id="a_node7"><a xlink:href="src/server.ts" xlink:title="server.ts">
<path fill="#ddfeff" stroke="#000000" d="M80,-142C80,-142 38,-142 38,-142 35,-142 32,-139 32,-136 32,-136 32,-130 32,-130 32,-127 35,-124 38,-124 38,-124 80,-124 80,-124 83,-124 86,-127 86,-130 86,-130 86,-136 86,-136 86,-139 83,-142 80,-142"/>
<text text-anchor="middle" x="59" y="-130.8" font-family="Helvetica,sans-Serif" font-size="9.00" fill="#000000">server.ts</text>
</a>
</g>
</g>
<!-- src/server.ts&#45;&gt;body&#45;parser -->
<g id="edge5" class="edge">
<title>src/server.ts&#45;&gt;body&#45;parser</title>
<path fill="none" stroke="#000000" stroke-width="2" stroke-opacity="0.200000" d="M63.4656,-123.7568C71.6537,-107.6513 90.5023,-74.2348 115,-54 115.1698,-53.8597 115.3412,-53.7205 115.514,-53.5823"/>
<polygon fill="#000000" fill-opacity="0.200000" stroke="#000000" stroke-width="2" stroke-opacity="0.200000" points="117.5455,-56.4362 124.0217,-48.0512 113.73,-50.5674 117.5455,-56.4362"/>
</g>
<!-- src/server.ts&#45;&gt;express -->
<g id="edge6" class="edge">
<title>src/server.ts&#45;&gt;express</title>
<path fill="none" stroke="#000000" stroke-width="2" stroke-opacity="0.200000" d="M61.4452,-123.8488C66.9534,-104.7319 82.0096,-59.8695 115.5934,-25.3008"/>
<polygon fill="#000000" fill-opacity="0.200000" stroke="#000000" stroke-width="2" stroke-opacity="0.200000" points="118.2901,-27.5618 123.0443,-18.0935 113.4233,-22.5305 118.2901,-27.5618"/>
</g>
<!-- src/server.ts&#45;&gt;src/cars.ts -->
<g id="edge4" class="edge">
<title>src/server.ts&#45;&gt;src/cars.ts</title>
<path fill="none" stroke="#000000" stroke-width="2" stroke-opacity="0.200000" d="M86.1865,-137.582C94.0366,-138.905 102.7383,-140.3716 111.0745,-141.7766"/>
<polygon fill="#000000" fill-opacity="0.200000" stroke="#000000" stroke-width="2" stroke-opacity="0.200000" points="110.5373,-145.2353 120.98,-143.4461 111.7007,-138.3327 110.5373,-145.2353"/>
</g>
<!-- src/unit&#45;test&#45;examples/units.tests.ts -->
<g id="node8" class="node">
<title>src/unit&#45;test&#45;examples/units.tests.ts</title>
<g id="a_node8"><a xlink:href="src/unit-test-examples/units.tests.ts" xlink:title="units.tests.ts">
<path fill="#ddfeff" stroke="#000000" d="M86,-206C86,-206 32,-206 32,-206 29,-206 26,-203 26,-200 26,-200 26,-194 26,-194 26,-191 29,-188 32,-188 32,-188 86,-188 86,-188 89,-188 92,-191 92,-194 92,-194 92,-200 92,-200 92,-203 89,-206 86,-206"/>
<text text-anchor="middle" x="59" y="-194.8" font-family="Helvetica,sans-Serif" font-size="9.00" fill="#000000">units.tests.ts</text>
</a>
</g>
</g>
<!-- src/unit&#45;test&#45;examples/units.tests.ts&#45;&gt;chai -->
<g id="edge8" class="edge">
<title>src/unit&#45;test&#45;examples/units.tests.ts&#45;&gt;chai</title>
<path fill="none" stroke="#000000" stroke-width="2" stroke-opacity="0.200000" d="M92.251,-191.1527C95.9197,-189.3564 99.2981,-187.0243 102,-184 121.3692,-162.3193 99.8375,-142.1873 114.8729,-116.0344"/>
<polygon fill="#000000" fill-opacity="0.200000" stroke="#000000" stroke-width="2" stroke-opacity="0.200000" points="117.8471,-117.8917 120.7989,-107.7163 112.1459,-113.8301 117.8471,-117.8917"/>
</g>
<!-- src/unit&#45;test&#45;examples/units.tests.ts&#45;&gt;mocha -->
<g id="edge9" class="edge">
<title>src/unit&#45;test&#45;examples/units.tests.ts&#45;&gt;mocha</title>
<path fill="none" stroke="#000000" stroke-width="2" stroke-opacity="0.200000" d="M92.402,-191.2841C96.046,-189.4663 99.3774,-187.0933 102,-184 128.9459,-152.2184 93.9936,-124.2456 115.4105,-86.7089"/>
<polygon fill="#000000" fill-opacity="0.200000" stroke="#000000" stroke-width="2" stroke-opacity="0.200000" points="118.5829,-88.2658 121.2882,-78.0222 112.7853,-84.343 118.5829,-88.2658"/>
</g>
<!-- src/unit&#45;test&#45;examples/units.ts -->
<g id="node9" class="node">
<title>src/unit&#45;test&#45;examples/units.ts</title>
<g id="a_node9"><a xlink:href="src/unit-test-examples/units.ts" xlink:title="units.ts">
<path fill="#ddfeff" stroke="#000000" d="M169,-206C169,-206 127,-206 127,-206 124,-206 121,-203 121,-200 121,-200 121,-194 121,-194 121,-191 124,-188 127,-188 127,-188 169,-188 169,-188 172,-188 175,-191 175,-194 175,-194 175,-200 175,-200 175,-203 172,-206 169,-206"/>
<text text-anchor="middle" x="148" y="-194.8" font-family="Helvetica,sans-Serif" font-size="9.00" fill="#000000">units.ts</text>
</a>
</g>
</g>
<!-- src/unit&#45;test&#45;examples/units.tests.ts&#45;&gt;src/unit&#45;test&#45;examples/units.ts -->
<g id="edge7" class="edge">
<title>src/unit&#45;test&#45;examples/units.tests.ts&#45;&gt;src/unit&#45;test&#45;examples/units.ts</title>
<path fill="none" stroke="#000000" stroke-width="2" stroke-opacity="0.200000" d="M92.1403,-197C98.2192,-197 104.6012,-197 110.7898,-197"/>
<polygon fill="#000000" fill-opacity="0.200000" stroke="#000000" stroke-width="2" stroke-opacity="0.200000" points="110.9346,-200.5001 120.9346,-197 110.9345,-193.5001 110.9346,-200.5001"/>
</g>
</g>
</svg>
