<?xml version="1.0" encoding="UTF-8" standalone="no"?>
<!DOCTYPE svg PUBLIC "-//W3C//DTD SVG 1.1//EN"
 "http://www.w3.org/Graphics/SVG/1.1/DTD/svg11.dtd">
<!-- Generated by graphviz version 2.40.1 (20161225.0304)
 -->
<!-- Title: dependency&#45;cruiser output Pages: 1 -->
<svg width="547pt" height="320pt"
 viewBox="0.00 0.00 547.00 320.00" xmlns="http://www.w3.org/2000/svg" xmlns:xlink="http://www.w3.org/1999/xlink">
<g id="graph0" class="graph" transform="scale(1 1) rotate(0) translate(4 316)">
<title>dependency&#45;cruiser output</title>
<polygon fill="#ffffff" stroke="transparent" points="-4,4 -4,-316 543,-316 543,4 -4,4"/>
<g id="clust1" class="cluster">
<title>cluster_src</title>
<path fill="#ffffff" stroke="#000000" stroke-width="2" d="M20,-8C20,-8 519,-8 519,-8 525,-8 531,-14 531,-20 531,-20 531,-292 531,-292 531,-298 525,-304 519,-304 519,-304 20,-304 20,-304 14,-304 8,-298 8,-292 8,-292 8,-20 8,-20 8,-14 14,-8 20,-8"/>
<text text-anchor="middle" x="269.5" y="-292.8" font-family="Helvetica,sans-Serif" font-weight="bold" font-size="9.00" fill="#000000">src</text>
</g>
<g id="clust2" class="cluster">
<title>cluster_src/api</title>
<path fill="#ffffff" stroke="#000000" stroke-width="2" d="M374.5,-196C374.5,-196 437.5,-196 437.5,-196 443.5,-196 449.5,-202 449.5,-208 449.5,-208 449.5,-266 449.5,-266 449.5,-272 443.5,-278 437.5,-278 437.5,-278 374.5,-278 374.5,-278 368.5,-278 362.5,-272 362.5,-266 362.5,-266 362.5,-208 362.5,-208 362.5,-202 368.5,-196 374.5,-196"/>
<text text-anchor="middle" x="406" y="-266.8" font-family="Helvetica,sans-Serif" font-weight="bold" font-size="9.00" fill="#000000">api</text>
</g>
<g id="clust3" class="cluster">
<title>cluster_src/components</title>
<path fill="#ffffff" stroke="#000000" stroke-width="2" d="M267,-16C267,-16 449,-16 449,-16 455,-16 461,-22 461,-28 461,-28 461,-176 461,-176 461,-182 455,-188 449,-188 449,-188 267,-188 267,-188 261,-188 255,-182 255,-176 255,-176 255,-28 255,-28 255,-22 261,-16 267,-16"/>
<text text-anchor="middle" x="358" y="-176.8" font-family="Helvetica,sans-Serif" font-weight="bold" font-size="9.00" fill="#000000">components</text>
</g>
<g id="clust4" class="cluster">
<title>cluster_src/types</title>
<path fill="#ffffff" stroke="#000000" stroke-width="2" d="M28,-106C28,-106 143,-106 143,-106 149,-106 155,-112 155,-118 155,-118 155,-266 155,-266 155,-272 149,-278 143,-278 143,-278 28,-278 28,-278 22,-278 16,-272 16,-266 16,-266 16,-118 16,-118 16,-112 22,-106 28,-106"/>
<text text-anchor="middle" x="85.5" y="-266.8" font-family="Helvetica,sans-Serif" font-weight="bold" font-size="9.00" fill="#000000">types</text>
</g>
<!-- src/App.tsx -->
<g id="node1" class="node">
<title>src/App.tsx</title>
<g id="a_node1"><a xlink:href="src/App.tsx" xlink:title="App.tsx">
<path fill="#bbfeff" stroke="#000000" d="M226,-85C226,-85 184,-85 184,-85 181,-85 178,-82 178,-79 178,-79 178,-73 178,-73 178,-70 181,-67 184,-67 184,-67 226,-67 226,-67 229,-67 232,-70 232,-73 232,-73 232,-79 232,-79 232,-82 229,-85 226,-85"/>
<text text-anchor="middle" x="205" y="-73.8" font-family="Helvetica,sans-Serif" font-size="9.00" fill="#000000">App.tsx</text>
</a>
</g>
</g>
<!-- src/components/CreateGroup.tsx -->
<g id="node4" class="node">
<title>src/components/CreateGroup.tsx</title>
<g id="a_node4"><a xlink:href="src/components/CreateGroup.tsx" xlink:title="CreateGroup.tsx">
<path fill="#bbfeff" stroke="#000000" d="M340,-162C340,-162 269,-162 269,-162 266,-162 263,-159 263,-156 263,-156 263,-150 263,-150 263,-147 266,-144 269,-144 269,-144 340,-144 340,-144 343,-144 346,-147 346,-150 346,-150 346,-156 346,-156 346,-159 343,-162 340,-162"/>
<text text-anchor="middle" x="304.5" y="-150.8" font-family="Helvetica,sans-Serif" font-size="9.00" fill="#000000">CreateGroup.tsx</text>
</a>
</g>
</g>
<!-- src/App.tsx&#45;&gt;src/components/CreateGroup.tsx -->
<g id="edge1" class="edge">
<title>src/App.tsx&#45;&gt;src/components/CreateGroup.tsx</title>
<path fill="none" stroke="#000000" stroke-width="2" stroke-opacity="0.200000" d="M232.0481,-80.9613C237.7022,-83.1742 243.1177,-86.3738 247,-91 260.6211,-107.2312 240.987,-122.1058 255,-138 255.8462,-138.9598 256.7516,-139.8593 257.707,-140.7021"/>
<polygon fill="#000000" fill-opacity="0.200000" stroke="#000000" stroke-width="2" stroke-opacity="0.200000" points="256.773,-142.6203 262.8574,-144.4616 259.2493,-139.2279 256.773,-142.6203"/>
</g>
<!-- src/components/CreateImage.tsx -->
<g id="node5" class="node">
<title>src/components/CreateImage.tsx</title>
<g id="a_node5"><a xlink:href="src/components/CreateImage.tsx" xlink:title="CreateImage.tsx">
<path fill="#bbfeff" stroke="#000000" d="M340,-132C340,-132 269,-132 269,-132 266,-132 263,-129 263,-126 263,-126 263,-120 263,-120 263,-117 266,-114 269,-114 269,-114 340,-114 340,-114 343,-114 346,-117 346,-120 346,-120 346,-126 346,-126 346,-129 343,-132 340,-132"/>
<text text-anchor="middle" x="304.5" y="-120.8" font-family="Helvetica,sans-Serif" font-size="9.00" fill="#000000">CreateImage.tsx</text>
</a>
</g>
</g>
<!-- src/App.tsx&#45;&gt;src/components/CreateImage.tsx -->
<g id="edge2" class="edge">
<title>src/App.tsx&#45;&gt;src/components/CreateImage.tsx</title>
<path fill="none" stroke="#000000" stroke-width="2" stroke-opacity="0.200000" d="M232.0674,-82.1258C237.4579,-84.2715 242.7572,-87.1493 247,-91 253.1834,-96.6119 248.6816,-102.5405 255,-108 256.1891,-109.0274 257.4469,-109.9844 258.7585,-110.8759"/>
<polygon fill="#000000" fill-opacity="0.200000" stroke="#000000" stroke-width="2" stroke-opacity="0.200000" points="257.8177,-112.7591 264.0525,-113.9997 259.9522,-109.1419 257.8177,-112.7591"/>
</g>
<!-- src/components/GroupsList.tsx -->
<g id="node7" class="node">
<title>src/components/GroupsList.tsx</title>
<g id="a_node7"><a xlink:href="src/components/GroupsList.tsx" xlink:title="GroupsList.tsx">
<path fill="#bbfeff" stroke="#000000" d="M335.5,-102C335.5,-102 273.5,-102 273.5,-102 270.5,-102 267.5,-99 267.5,-96 267.5,-96 267.5,-90 267.5,-90 267.5,-87 270.5,-84 273.5,-84 273.5,-84 335.5,-84 335.5,-84 338.5,-84 341.5,-87 341.5,-90 341.5,-90 341.5,-96 341.5,-96 341.5,-99 338.5,-102 335.5,-102"/>
<text text-anchor="middle" x="304.5" y="-90.8" font-family="Helvetica,sans-Serif" font-size="9.00" fill="#000000">GroupsList.tsx</text>
</a>
</g>
</g>
<!-- src/App.tsx&#45;&gt;src/components/GroupsList.tsx -->
<g id="edge3" class="edge">
<title>src/App.tsx&#45;&gt;src/components/GroupsList.tsx</title>
<path fill="none" stroke="#000000" stroke-width="2" stroke-opacity="0.200000" d="M232.1888,-80.6453C241.147,-82.1759 251.3433,-83.9179 261.1965,-85.6014"/>
<polygon fill="#000000" fill-opacity="0.200000" stroke="#000000" stroke-width="2" stroke-opacity="0.200000" points="261.005,-87.699 267.273,-86.6396 261.7124,-83.559 261.005,-87.699"/>
</g>
<!-- src/components/ImagesList.tsx -->
<g id="node8" class="node">
<title>src/components/ImagesList.tsx</title>
<g id="a_node8"><a xlink:href="src/components/ImagesList.tsx" xlink:title="ImagesList.tsx">
<path fill="#bbfeff" stroke="#000000" d="M335.5,-72C335.5,-72 273.5,-72 273.5,-72 270.5,-72 267.5,-69 267.5,-66 267.5,-66 267.5,-60 267.5,-60 267.5,-57 270.5,-54 273.5,-54 273.5,-54 335.5,-54 335.5,-54 338.5,-54 341.5,-57 341.5,-60 341.5,-60 341.5,-66 341.5,-66 341.5,-69 338.5,-72 335.5,-72"/>
<text text-anchor="middle" x="304.5" y="-60.8" font-family="Helvetica,sans-Serif" font-size="9.00" fill="#000000">ImagesList.tsx</text>
</a>
</g>
</g>
<!-- src/App.tsx&#45;&gt;src/components/ImagesList.tsx -->
<g id="edge4" class="edge">
<title>src/App.tsx&#45;&gt;src/components/ImagesList.tsx</title>
<path fill="none" stroke="#000000" stroke-width="2" stroke-opacity="0.200000" d="M232.1888,-72.4477C241.147,-71.2773 251.3433,-69.9451 261.1965,-68.6577"/>
<polygon fill="#000000" fill-opacity="0.200000" stroke="#000000" stroke-width="2" stroke-opacity="0.200000" points="261.5956,-70.7235 267.273,-67.8638 261.0515,-66.5589 261.5956,-70.7235"/>
</g>
<!-- src/components/NotFound.tsx -->
<g id="node9" class="node">
<title>src/components/NotFound.tsx</title>
<g id="a_node9"><a xlink:href="src/components/NotFound.tsx" xlink:title="NotFound.tsx">
<path fill="#bbfeff" stroke="#000000" d="M334,-42C334,-42 275,-42 275,-42 272,-42 269,-39 269,-36 269,-36 269,-30 269,-30 269,-27 272,-24 275,-24 275,-24 334,-24 334,-24 337,-24 340,-27 340,-30 340,-30 340,-36 340,-36 340,-39 337,-42 334,-42"/>
<text text-anchor="middle" x="304.5" y="-30.8" font-family="Helvetica,sans-Serif" font-size="9.00" fill="#000000">NotFound.tsx</text>
</a>
</g>
</g>
<!-- src/App.tsx&#45;&gt;src/components/NotFound.tsx -->
<g id="edge5" class="edge">
<title>src/App.tsx&#45;&gt;src/components/NotFound.tsx</title>
<path fill="none" stroke="#000000" stroke-width="2" stroke-opacity="0.200000" d="M219.4525,-66.8034C229.2167,-60.8697 242.5499,-53.2985 255,-48 258.2818,-46.6033 261.7368,-45.279 265.2322,-44.0381"/>
<polygon fill="#000000" fill-opacity="0.200000" stroke="#000000" stroke-width="2" stroke-opacity="0.200000" points="266.1264,-45.9522 271.1296,-42.0307 264.7729,-41.9762 266.1264,-45.9522"/>
</g>
<!-- src/api/groups&#45;api.ts -->
<g id="node2" class="node">
<title>src/api/groups&#45;api.ts</title>
<g id="a_node2"><a xlink:href="src/api/groups-api.ts" xlink:title="groups&#45;api.ts">
<path fill="#ddfeff" stroke="#000000" d="M435,-252C435,-252 377,-252 377,-252 374,-252 371,-249 371,-246 371,-246 371,-240 371,-240 371,-237 374,-234 377,-234 377,-234 435,-234 435,-234 438,-234 441,-237 441,-240 441,-240 441,-246 441,-246 441,-249 438,-252 435,-252"/>
<text text-anchor="middle" x="406" y="-240.8" font-family="Helvetica,sans-Serif" font-size="9.00" fill="#000000">groups&#45;api.ts</text>
</a>
</g>
</g>
<!-- src/config.ts -->
<g id="node11" class="node">
<title>src/config.ts</title>
<g id="a_node11"><a xlink:href="src/config.ts" xlink:title="config.ts">
<path fill="#ddfeff" stroke="#000000" d="M517,-237C517,-237 475,-237 475,-237 472,-237 469,-234 469,-231 469,-231 469,-225 469,-225 469,-222 472,-219 475,-219 475,-219 517,-219 517,-219 520,-219 523,-222 523,-225 523,-225 523,-231 523,-231 523,-234 520,-237 517,-237"/>
<text text-anchor="middle" x="496" y="-225.8" font-family="Helvetica,sans-Serif" font-size="9.00" fill="#000000">config.ts</text>
</a>
</g>
</g>
<!-- src/api/groups&#45;api.ts&#45;&gt;src/config.ts -->
<g id="edge6" class="edge">
<title>src/api/groups&#45;api.ts&#45;&gt;src/config.ts</title>
<path fill="none" stroke="#000000" stroke-width="2" stroke-opacity="0.200000" d="M441.0541,-237.1577C448.1583,-235.9736 455.6107,-234.7316 462.654,-233.5577"/>
<polygon fill="#000000" fill-opacity="0.200000" stroke="#000000" stroke-width="2" stroke-opacity="0.200000" points="463.4125,-235.5603 468.9856,-232.5024 462.722,-231.4174 463.4125,-235.5603"/>
</g>
<!-- src/api/images&#45;api.ts -->
<g id="node3" class="node">
<title>src/api/images&#45;api.ts</title>
<g id="a_node3"><a xlink:href="src/api/images-api.ts" xlink:title="images&#45;api.ts">
<path fill="#ddfeff" stroke="#000000" d="M435.5,-222C435.5,-222 376.5,-222 376.5,-222 373.5,-222 370.5,-219 370.5,-216 370.5,-216 370.5,-210 370.5,-210 370.5,-207 373.5,-204 376.5,-204 376.5,-204 435.5,-204 435.5,-204 438.5,-204 441.5,-207 441.5,-210 441.5,-210 441.5,-216 441.5,-216 441.5,-219 438.5,-222 435.5,-222"/>
<text text-anchor="middle" x="406" y="-210.8" font-family="Helvetica,sans-Serif" font-size="9.00" fill="#000000">images&#45;api.ts</text>
</a>
</g>
</g>
<!-- src/api/images&#45;api.ts&#45;&gt;src/config.ts -->
<g id="edge7" class="edge">
<title>src/api/images&#45;api.ts&#45;&gt;src/config.ts</title>
<path fill="none" stroke="#000000" stroke-width="2" stroke-opacity="0.200000" d="M441.5704,-218.9284C448.4921,-220.082 455.7255,-221.2876 462.575,-222.4292"/>
<polygon fill="#000000" fill-opacity="0.200000" stroke="#000000" stroke-width="2" stroke-opacity="0.200000" points="462.4739,-224.5412 468.7375,-223.4563 463.1644,-220.3983 462.4739,-224.5412"/>
</g>
<!-- src/components/CreateGroup.tsx&#45;&gt;src/api/groups&#45;api.ts -->
<g id="edge8" class="edge">
<title>src/components/CreateGroup.tsx&#45;&gt;src/api/groups&#45;api.ts</title>
<path fill="none" stroke="#000000" stroke-width="2" stroke-opacity="0.200000" d="M308.8014,-162.313C316.5774,-178.1376 334.4723,-210.2789 359,-228 361.0308,-229.4672 363.211,-230.795 365.4801,-231.996"/>
<polygon fill="#000000" fill-opacity="0.200000" stroke="#000000" stroke-width="2" stroke-opacity="0.200000" points="364.5867,-233.8964 370.9074,-234.5743 366.389,-230.1027 364.5867,-233.8964"/>
</g>
<!-- src/components/CreateImage.tsx&#45;&gt;src/api/images&#45;api.ts -->
<g id="edge9" class="edge">
<title>src/components/CreateImage.tsx&#45;&gt;src/api/images&#45;api.ts</title>
<path fill="none" stroke="#000000" stroke-width="2" stroke-opacity="0.200000" d="M338.9016,-132.1486C341.5296,-133.7881 343.9513,-135.7211 346,-138 362.2147,-156.0369 343.6221,-172.2446 359,-191 362.2025,-194.9058 366.2564,-198.1561 370.6351,-200.8505"/>
<polygon fill="#000000" fill-opacity="0.200000" stroke="#000000" stroke-width="2" stroke-opacity="0.200000" points="369.6272,-202.6928 375.8932,-203.7642 371.663,-199.0191 369.6272,-202.6928"/>
</g>
<!-- src/components/Group.tsx -->
<g id="node6" class="node">
<title>src/components/Group.tsx</title>
<g id="a_node6"><a xlink:href="src/components/Group.tsx" xlink:title="Group.tsx">
<path fill="#bbfeff" stroke="#000000" d="M428,-102C428,-102 384,-102 384,-102 381,-102 378,-99 378,-96 378,-96 378,-90 378,-90 378,-87 381,-84 384,-84 384,-84 428,-84 428,-84 431,-84 434,-87 434,-90 434,-90 434,-96 434,-96 434,-99 431,-102 428,-102"/>
<text text-anchor="middle" x="406" y="-90.8" font-family="Helvetica,sans-Serif" font-size="9.00" fill="#000000">Group.tsx</text>
</a>
</g>
</g>
<!-- src/components/GroupsList.tsx&#45;&gt;src/api/groups&#45;api.ts -->
<g id="edge10" class="edge">
<title>src/components/GroupsList.tsx&#45;&gt;src/api/groups&#45;api.ts</title>
<path fill="none" stroke="#000000" stroke-width="2" stroke-opacity="0.200000" d="M339.6156,-102.1265C342.0225,-103.7707 344.2015,-105.7108 346,-108 379.1419,-150.1834 325.0646,-186.4522 359,-228 360.8659,-230.2845 363.0803,-232.2258 365.5157,-233.8749"/>
<polygon fill="#000000" fill-opacity="0.200000" stroke="#000000" stroke-width="2" stroke-opacity="0.200000" points="364.5296,-235.7298 370.7842,-236.8658 366.6031,-232.0773 364.5296,-235.7298"/>
</g>
<!-- src/components/GroupsList.tsx&#45;&gt;src/components/Group.tsx -->
<g id="edge11" class="edge">
<title>src/components/GroupsList.tsx&#45;&gt;src/components/Group.tsx</title>
<path fill="none" stroke="#000000" stroke-width="2" stroke-opacity="0.200000" d="M341.7185,-93C351.465,-93 361.9298,-93 371.5262,-93"/>
<polygon fill="#000000" fill-opacity="0.200000" stroke="#000000" stroke-width="2" stroke-opacity="0.200000" points="371.6908,-95.1001 377.6908,-93 371.6907,-90.9001 371.6908,-95.1001"/>
</g>
<!-- src/components/ImagesList.tsx&#45;&gt;src/api/images&#45;api.ts -->
<g id="edge12" class="edge">
<title>src/components/ImagesList.tsx&#45;&gt;src/api/images&#45;api.ts</title>
<path fill="none" stroke="#000000" stroke-width="2" stroke-opacity="0.200000" d="M339.5991,-72.1395C342.0096,-73.7809 344.1939,-75.7168 346,-78 377.3633,-117.6484 329.4716,-149.9667 359,-191 361.8121,-194.9078 365.4981,-198.1427 369.5707,-200.8154"/>
<polygon fill="#000000" fill-opacity="0.200000" stroke="#000000" stroke-width="2" stroke-opacity="0.200000" points="368.6559,-202.7125 374.8993,-203.9085 370.7644,-199.0802 368.6559,-202.7125"/>
</g>
<!-- src/components/UdagramImage.tsx -->
<g id="node10" class="node">
<title>src/components/UdagramImage.tsx</title>
<g id="a_node10"><a xlink:href="src/components/UdagramImage.tsx" xlink:title="UdagramImage.tsx">
<path fill="#bbfeff" stroke="#000000" d="M447,-72C447,-72 365,-72 365,-72 362,-72 359,-69 359,-66 359,-66 359,-60 359,-60 359,-57 362,-54 365,-54 365,-54 447,-54 447,-54 450,-54 453,-57 453,-60 453,-60 453,-66 453,-66 453,-69 450,-72 447,-72"/>
<text text-anchor="middle" x="406" y="-60.8" font-family="Helvetica,sans-Serif" font-size="9.00" fill="#000000">UdagramImage.tsx</text>
</a>
</g>
</g>
<!-- src/components/ImagesList.tsx&#45;&gt;src/components/UdagramImage.tsx -->
<g id="edge13" class="edge">
<title>src/components/ImagesList.tsx&#45;&gt;src/components/UdagramImage.tsx</title>
<path fill="none" stroke="#000000" stroke-width="2" stroke-opacity="0.200000" d="M341.7185,-63C345.2706,-63 348.918,-63 352.5841,-63"/>
<polygon fill="#000000" fill-opacity="0.200000" stroke="#000000" stroke-width="2" stroke-opacity="0.200000" points="352.7578,-65.1001 358.7578,-63 352.7578,-60.9001 352.7578,-65.1001"/>
</g>
<!-- src/index.css -->
<g id="node12" class="node">
<title>src/index.css</title>
<g id="a_node12"><a xlink:href="src/index.css" xlink:title="index.css">
<path fill="#ffffcc" stroke="#000000" d="M226.5,-115C226.5,-115 183.5,-115 183.5,-115 180.5,-115 177.5,-112 177.5,-109 177.5,-109 177.5,-103 177.5,-103 177.5,-100 180.5,-97 183.5,-97 183.5,-97 226.5,-97 226.5,-97 229.5,-97 232.5,-100 232.5,-103 232.5,-103 232.5,-109 232.5,-109 232.5,-112 229.5,-115 226.5,-115"/>
<text text-anchor="middle" x="205" y="-103.8" font-family="Helvetica,sans-Serif" font-size="9.00" fill="#000000">index.css</text>
</a>
</g>
</g>
<!-- src/index.tsx -->
<g id="node13" class="node">
<title>src/index.tsx</title>
<g id="a_node13"><a xlink:href="src/index.tsx" xlink:title="index.tsx">
<path fill="#bbfeff" stroke="#000000" d="M106.5,-98C106.5,-98 64.5,-98 64.5,-98 61.5,-98 58.5,-95 58.5,-92 58.5,-92 58.5,-86 58.5,-86 58.5,-83 61.5,-80 64.5,-80 64.5,-80 106.5,-80 106.5,-80 109.5,-80 112.5,-83 112.5,-86 112.5,-86 112.5,-92 112.5,-92 112.5,-95 109.5,-98 106.5,-98"/>
<text text-anchor="middle" x="85.5" y="-86.8" font-family="Helvetica,sans-Serif" font-size="9.00" fill="#000000">index.tsx</text>
</a>
</g>
</g>
<!-- src/index.tsx&#45;&gt;src/App.tsx -->
<g id="edge14" class="edge">
<title>src/index.tsx&#45;&gt;src/App.tsx</title>
<path fill="none" stroke="#000000" stroke-width="2" stroke-opacity="0.200000" d="M112.6164,-86.0501C130.1871,-84.1386 153.1889,-81.6364 171.8448,-79.6068"/>
<polygon fill="#000000" fill-opacity="0.200000" stroke="#000000" stroke-width="2" stroke-opacity="0.200000" points="172.2532,-81.6749 177.9909,-78.9382 171.799,-77.4995 172.2532,-81.6749"/>
</g>
<!-- src/index.tsx&#45;&gt;src/index.css -->
<g id="edge15" class="edge">
<title>src/index.tsx&#45;&gt;src/index.css</title>
<path fill="none" stroke="#000000" stroke-width="2" stroke-opacity="0.200000" d="M112.6164,-92.8576C129.9396,-95.3219 152.542,-98.5374 171.054,-101.1709"/>
<polygon fill="#000000" fill-opacity="0.200000" stroke="#000000" stroke-width="2" stroke-opacity="0.200000" points="170.9256,-103.2737 177.1616,-102.0397 171.5172,-99.1155 170.9256,-103.2737"/>
</g>
<!-- src/serviceWorker.ts -->
<g id="node15" class="node">
<title>src/serviceWorker.ts</title>
<g id="a_node15"><a xlink:href="src/serviceWorker.ts" xlink:title="serviceWorker.ts">
<path fill="#ddfeff" stroke="#000000" d="M241,-145C241,-145 169,-145 169,-145 166,-145 163,-142 163,-139 163,-139 163,-133 163,-133 163,-130 166,-127 169,-127 169,-127 241,-127 241,-127 244,-127 247,-130 247,-133 247,-133 247,-139 247,-139 247,-142 244,-145 241,-145"/>
<text text-anchor="middle" x="205" y="-133.8" font-family="Helvetica,sans-Serif" font-size="9.00" fill="#000000">serviceWorker.ts</text>
</a>
</g>
</g>
<!-- src/index.tsx&#45;&gt;src/serviceWorker.ts -->
<g id="edge16" class="edge">
<title>src/index.tsx&#45;&gt;src/serviceWorker.ts</title>
<path fill="none" stroke="#000000" stroke-width="2" stroke-opacity="0.200000" d="M112.7197,-88.743C126.6815,-89.9298 143.1871,-93.5315 155,-103 161.831,-108.4753 156.5813,-115.0467 163,-121 164.0147,-121.9412 165.0925,-122.824 166.2197,-123.6521"/>
<polygon fill="#000000" fill-opacity="0.200000" stroke="#000000" stroke-width="2" stroke-opacity="0.200000" points="165.2398,-125.517 171.4346,-126.9434 167.4814,-121.9652 165.2398,-125.517"/>
</g>
<!-- src/react&#45;app&#45;env.d.ts -->
<g id="node14" class="node">
<title>src/react&#45;app&#45;env.d.ts</title>
<g id="a_node14"><a xlink:href="src/react-app-env.d.ts" xlink:title="react&#45;app&#45;env.d.ts">
<path fill="#ccffcc" stroke="#000000" d="M124.5,-51C124.5,-51 46.5,-51 46.5,-51 43.5,-51 40.5,-48 40.5,-45 40.5,-45 40.5,-39 40.5,-39 40.5,-36 43.5,-33 46.5,-33 46.5,-33 124.5,-33 124.5,-33 127.5,-33 130.5,-36 130.5,-39 130.5,-39 130.5,-45 130.5,-45 130.5,-48 127.5,-51 124.5,-51"/>
<text text-anchor="middle" x="85.5" y="-39.8" font-family="Helvetica,sans-Serif" font-size="9.00" fill="#000000">react&#45;app&#45;env.d.ts</text>
</a>
</g>
</g>
<!-- src/types/GroupModel.ts -->
<g id="node16" class="node">
<title>src/types/GroupModel.ts</title>
<g id="a_node16"><a xlink:href="src/types/GroupModel.ts" xlink:title="GroupModel.ts">
<path fill="#ccffcc" stroke="#000000" d="M118,-252C118,-252 53,-252 53,-252 50,-252 47,-249 47,-246 47,-246 47,-240 47,-240 47,-237 50,-234 53,-234 53,-234 118,-234 118,-234 121,-234 124,-237 124,-240 124,-240 124,-246 124,-246 124,-249 121,-252 118,-252"/>
<text text-anchor="middle" x="85.5" y="-240.8" font-family="Helvetica,sans-Serif" font-size="9.00" fill="#000000">GroupModel.ts</text>
</a>
</g>
</g>
<!-- src/types/GroupUploadInfo.ts -->
<g id="node17" class="node">
<title>src/types/GroupUploadInfo.ts</title>
<g id="a_node17"><a xlink:href="src/types/GroupUploadInfo.ts" xlink:title="GroupUploadInfo.ts">
<path fill="#ccffcc" stroke="#000000" d="M127.5,-222C127.5,-222 43.5,-222 43.5,-222 40.5,-222 37.5,-219 37.5,-216 37.5,-216 37.5,-210 37.5,-210 37.5,-207 40.5,-204 43.5,-204 43.5,-204 127.5,-204 127.5,-204 130.5,-204 133.5,-207 133.5,-210 133.5,-210 133.5,-216 133.5,-216 133.5,-219 130.5,-222 127.5,-222"/>
<text text-anchor="middle" x="85.5" y="-210.8" font-family="Helvetica,sans-Serif" font-size="9.00" fill="#000000">GroupUploadInfo.ts</text>
</a>
</g>
</g>
<!-- src/types/ImageModel.ts -->
<g id="node18" class="node">
<title>src/types/ImageModel.ts</title>
<g id="a_node18"><a xlink:href="src/types/ImageModel.ts" xlink:title="ImageModel.ts">
<path fill="#ccffcc" stroke="#000000" d="M118,-192C118,-192 53,-192 53,-192 50,-192 47,-189 47,-186 47,-186 47,-180 47,-180 47,-177 50,-174 53,-174 53,-174 118,-174 118,-174 121,-174 124,-177 124,-180 124,-180 124,-186 124,-186 124,-189 121,-192 118,-192"/>
<text text-anchor="middle" x="85.5" y="-180.8" font-family="Helvetica,sans-Serif" font-size="9.00" fill="#000000">ImageModel.ts</text>
</a>
</g>
</g>
<!-- src/types/ImageUploadInfo.ts -->
<g id="node19" class="node">
<title>src/types/ImageUploadInfo.ts</title>
<g id="a_node19"><a xlink:href="src/types/ImageUploadInfo.ts" xlink:title="ImageUploadInfo.ts">
<path fill="#ccffcc" stroke="#000000" d="M127.5,-162C127.5,-162 43.5,-162 43.5,-162 40.5,-162 37.5,-159 37.5,-156 37.5,-156 37.5,-150 37.5,-150 37.5,-147 40.5,-144 43.5,-144 43.5,-144 127.5,-144 127.5,-144 130.5,-144 133.5,-147 133.5,-150 133.5,-150 133.5,-156 133.5,-156 133.5,-159 130.5,-162 127.5,-162"/>
<text text-anchor="middle" x="85.5" y="-150.8" font-family="Helvetica,sans-Serif" font-size="9.00" fill="#000000">ImageUploadInfo.ts</text>
</a>
</g>
</g>
<!-- src/types/ImageUploadResponse.ts -->
<g id="node20" class="node">
<title>src/types/ImageUploadResponse.ts</title>
<g id="a_node20"><a xlink:href="src/types/ImageUploadResponse.ts" xlink:title="ImageUploadResponse.ts">
<path fill="#ccffcc" stroke="#000000" d="M141,-132C141,-132 30,-132 30,-132 27,-132 24,-129 24,-126 24,-126 24,-120 24,-120 24,-117 27,-114 30,-114 30,-114 141,-114 141,-114 144,-114 147,-117 147,-120 147,-120 147,-126 147,-126 147,-129 144,-132 141,-132"/>
<text text-anchor="middle" x="85.5" y="-120.8" font-family="Helvetica,sans-Serif" font-size="9.00" fill="#000000">ImageUploadResponse.ts</text>
</a>
</g>
</g>
</g>
</svg>
