<?xml version="1.0" encoding="UTF-8" standalone="no"?>
<!DOCTYPE svg PUBLIC "-//W3C//DTD SVG 1.1//EN"
 "http://www.w3.org/Graphics/SVG/1.1/DTD/svg11.dtd">
<!-- Generated by graphviz version 2.40.1 (20161225.0304)
 -->
<!-- Title: dependency&#45;cruiser output Pages: 1 -->
<svg width="591pt" height="398pt"
 viewBox="0.00 0.00 591.00 398.00" xmlns="http://www.w3.org/2000/svg" xmlns:xlink="http://www.w3.org/1999/xlink">
<g id="graph0" class="graph" transform="scale(1 1) rotate(0) translate(4 394)">
<title>dependency&#45;cruiser output</title>
<polygon fill="#ffffff" stroke="transparent" points="-4,4 -4,-394 587,-394 587,4 -4,4"/>
<g id="clust1" class="cluster">
<title>cluster_src</title>
<path fill="#ffffff" stroke="#000000" stroke-width="2" d="M20,-8C20,-8 563,-8 563,-8 569,-8 575,-14 575,-20 575,-20 575,-370 575,-370 575,-376 569,-382 563,-382 563,-382 20,-382 20,-382 14,-382 8,-376 8,-370 8,-370 8,-20 8,-20 8,-14 14,-8 20,-8"/>
<text text-anchor="middle" x="291.5" y="-370.8" font-family="Helvetica,sans-Serif" font-weight="bold" font-size="9.00" fill="#000000">src</text>
</g>
<g id="clust2" class="cluster">
<title>cluster_src/config</title>
<path fill="#ffffff" stroke="#000000" stroke-width="2" d="M485,-304C485,-304 531,-304 531,-304 537,-304 543,-310 543,-316 543,-316 543,-344 543,-344 543,-350 537,-356 531,-356 531,-356 485,-356 485,-356 479,-356 473,-350 473,-344 473,-344 473,-316 473,-316 473,-310 479,-304 485,-304"/>
<text text-anchor="middle" x="508" y="-344.8" font-family="Helvetica,sans-Serif" font-weight="bold" font-size="9.00" fill="#000000">config</text>
</g>
<g id="clust3" class="cluster">
<title>cluster_src/controllers</title>
<path fill="#ffffff" stroke="#000000" stroke-width="2" d="M189,-16C189,-16 555,-16 555,-16 561,-16 567,-22 567,-28 567,-28 567,-284 567,-284 567,-290 561,-296 555,-296 555,-296 189,-296 189,-296 183,-296 177,-290 177,-284 177,-284 177,-28 177,-28 177,-22 183,-16 189,-16"/>
<text text-anchor="middle" x="372" y="-284.8" font-family="Helvetica,sans-Serif" font-weight="bold" font-size="9.00" fill="#000000">controllers</text>
</g>
<g id="clust4" class="cluster">
<title>cluster_src/controllers/v0</title>
<path fill="#ffffff" stroke="#000000" stroke-width="2" d="M197,-24C197,-24 547,-24 547,-24 553,-24 559,-30 559,-36 559,-36 559,-258 559,-258 559,-264 553,-270 547,-270 547,-270 197,-270 197,-270 191,-270 185,-264 185,-258 185,-258 185,-36 185,-36 185,-30 191,-24 197,-24"/>
<text text-anchor="middle" x="372" y="-258.8" font-family="Helvetica,sans-Serif" font-weight="bold" font-size="9.00" fill="#000000">v0</text>
</g>
<g id="clust5" class="cluster">
<title>cluster_src/controllers/v0/feed</title>
<path fill="#ffffff" stroke="#000000" stroke-width="2" d="M287,-132C287,-132 453,-132 453,-132 459,-132 465,-138 465,-144 465,-144 465,-206 465,-206 465,-212 459,-218 453,-218 453,-218 287,-218 287,-218 281,-218 275,-212 275,-206 275,-206 275,-144 275,-144 275,-138 281,-132 287,-132"/>
<text text-anchor="middle" x="370" y="-206.8" font-family="Helvetica,sans-Serif" font-weight="bold" font-size="9.00" fill="#000000">feed</text>
</g>
<g id="clust6" class="cluster">
<title>cluster_src/controllers/v0/feed/models</title>
<path fill="#ffffff" stroke="#000000" stroke-width="2" d="M389,-140C389,-140 445,-140 445,-140 451,-140 457,-146 457,-152 457,-152 457,-180 457,-180 457,-186 451,-192 445,-192 445,-192 389,-192 389,-192 383,-192 377,-186 377,-180 377,-180 377,-152 377,-152 377,-146 383,-140 389,-140"/>
<text text-anchor="middle" x="417" y="-180.8" font-family="Helvetica,sans-Serif" font-weight="bold" font-size="9.00" fill="#000000">models</text>
</g>
<g id="clust7" class="cluster">
<title>cluster_src/controllers/v0/feed/routes</title>
<path fill="#ffffff" stroke="#000000" stroke-width="2" d="M295,-140C295,-140 357,-140 357,-140 363,-140 369,-146 369,-152 369,-152 369,-180 369,-180 369,-186 363,-192 357,-192 357,-192 295,-192 295,-192 289,-192 283,-186 283,-180 283,-180 283,-152 283,-152 283,-146 289,-140 295,-140"/>
<text text-anchor="middle" x="326" y="-180.8" font-family="Helvetica,sans-Serif" font-weight="bold" font-size="9.00" fill="#000000">routes</text>
</g>
<g id="clust8" class="cluster">
<title>cluster_src/controllers/v0/users</title>
<path fill="#ffffff" stroke="#000000" stroke-width="2" d="M287,-32C287,-32 539,-32 539,-32 545,-32 551,-38 551,-44 551,-44 551,-112 551,-112 551,-118 545,-124 539,-124 539,-124 287,-124 287,-124 281,-124 275,-118 275,-112 275,-112 275,-44 275,-44 275,-38 281,-32 287,-32"/>
<text text-anchor="middle" x="413" y="-112.8" font-family="Helvetica,sans-Serif" font-weight="bold" font-size="9.00" fill="#000000">users</text>
</g>
<g id="clust9" class="cluster">
<title>cluster_src/controllers/v0/users/models</title>
<path fill="#ffffff" stroke="#000000" stroke-width="2" d="M485,-46C485,-46 531,-46 531,-46 537,-46 543,-52 543,-58 543,-58 543,-86 543,-86 543,-92 537,-98 531,-98 531,-98 485,-98 485,-98 479,-98 473,-92 473,-86 473,-86 473,-58 473,-58 473,-52 479,-46 485,-46"/>
<text text-anchor="middle" x="508" y="-86.8" font-family="Helvetica,sans-Serif" font-weight="bold" font-size="9.00" fill="#000000">models</text>
</g>
<g id="clust10" class="cluster">
<title>cluster_src/controllers/v0/users/routes</title>
<path fill="#ffffff" stroke="#000000" stroke-width="2" d="M295,-46C295,-46 448,-46 448,-46 454,-46 460,-52 460,-58 460,-58 460,-86 460,-86 460,-92 454,-98 448,-98 448,-98 295,-98 295,-98 289,-98 283,-92 283,-86 283,-86 283,-58 283,-58 283,-52 289,-46 295,-46"/>
<text text-anchor="middle" x="371.5" y="-86.8" font-family="Helvetica,sans-Serif" font-weight="bold" font-size="9.00" fill="#000000">routes</text>
</g>
<g id="clust11" class="cluster">
<title>cluster_src/migrations</title>
<path fill="#ffffff" stroke="#000000" stroke-width="2" d="M28,-263C28,-263 157,-263 157,-263 163,-263 169,-269 169,-275 169,-275 169,-333 169,-333 169,-339 163,-345 157,-345 157,-345 28,-345 28,-345 22,-345 16,-339 16,-333 16,-333 16,-275 16,-275 16,-269 22,-263 28,-263"/>
<text text-anchor="middle" x="92.5" y="-333.8" font-family="Helvetica,sans-Serif" font-weight="bold" font-size="9.00" fill="#000000">migrations</text>
</g>
<!-- src/aws.ts -->
<g id="node1" class="node">
<title>src/aws.ts</title>
<g id="a_node1"><a xlink:href="src/aws.ts" xlink:title="aws.ts">
<path fill="#ddfeff" stroke="#000000" d="M438,-322C438,-322 396,-322 396,-322 393,-322 390,-319 390,-316 390,-316 390,-310 390,-310 390,-307 393,-304 396,-304 396,-304 438,-304 438,-304 441,-304 444,-307 444,-310 444,-310 444,-316 444,-316 444,-319 441,-322 438,-322"/>
<text text-anchor="middle" x="417" y="-310.8" font-family="Helvetica,sans-Serif" font-size="9.00" fill="#000000">aws.ts</text>
</a>
</g>
</g>
<!-- src/config/config.ts -->
<g id="node2" class="node">
<title>src/config/config.ts</title>
<g id="a_node2"><a xlink:href="src/config/config.ts" xlink:title="config.ts">
<path fill="#ddfeff" stroke="#000000" d="M529,-330C529,-330 487,-330 487,-330 484,-330 481,-327 481,-324 481,-324 481,-318 481,-318 481,-315 484,-312 487,-312 487,-312 529,-312 529,-312 532,-312 535,-315 535,-318 535,-318 535,-324 535,-324 535,-327 532,-330 529,-330"/>
<text text-anchor="middle" x="508" y="-318.8" font-family="Helvetica,sans-Serif" font-size="9.00" fill="#000000">config.ts</text>
</a>
</g>
</g>
<!-- src/aws.ts&#45;&gt;src/config/config.ts -->
<g id="edge1" class="edge">
<title>src/aws.ts&#45;&gt;src/config/config.ts</title>
<path fill="none" stroke="#000000" stroke-width="2" stroke-opacity="0.200000" d="M444.303,-315.4003C452.5813,-316.128 461.8217,-316.9404 470.6405,-317.7156"/>
<polygon fill="#000000" fill-opacity="0.200000" stroke="#000000" stroke-width="2" stroke-opacity="0.200000" points="470.4481,-321.2121 480.7163,-318.6014 471.0612,-314.239 470.4481,-321.2121"/>
</g>
<!-- src/controllers/v0/feed/models/FeedItem.ts -->
<g id="node3" class="node">
<title>src/controllers/v0/feed/models/FeedItem.ts</title>
<g id="a_node3"><a xlink:href="src/controllers/v0/feed/models/FeedItem.ts" xlink:title="FeedItem.ts">
<path fill="#ddfeff" stroke="#000000" d="M443,-166C443,-166 391,-166 391,-166 388,-166 385,-163 385,-160 385,-160 385,-154 385,-154 385,-151 388,-148 391,-148 391,-148 443,-148 443,-148 446,-148 449,-151 449,-154 449,-154 449,-160 449,-160 449,-163 446,-166 443,-166"/>
<text text-anchor="middle" x="417" y="-154.8" font-family="Helvetica,sans-Serif" font-size="9.00" fill="#000000">FeedItem.ts</text>
</a>
</g>
</g>
<!-- src/controllers/v0/feed/routes/feed.router.ts -->
<g id="node4" class="node">
<title>src/controllers/v0/feed/routes/feed.router.ts</title>
<g id="a_node4"><a xlink:href="src/controllers/v0/feed/routes/feed.router.ts" xlink:title="feed.router.ts">
<path fill="#ddfeff" stroke="#000000" d="M355,-166C355,-166 297,-166 297,-166 294,-166 291,-163 291,-160 291,-160 291,-154 291,-154 291,-151 294,-148 297,-148 297,-148 355,-148 355,-148 358,-148 361,-151 361,-154 361,-154 361,-160 361,-160 361,-163 358,-166 355,-166"/>
<text text-anchor="middle" x="326" y="-154.8" font-family="Helvetica,sans-Serif" font-size="9.00" fill="#000000">feed.router.ts</text>
</a>
</g>
</g>
<!-- src/controllers/v0/feed/routes/feed.router.ts&#45;&gt;src/aws.ts -->
<g id="edge2" class="edge">
<title>src/controllers/v0/feed/routes/feed.router.ts&#45;&gt;src/aws.ts</title>
<path fill="none" stroke="#000000" stroke-width="2" stroke-opacity="0.200000" d="M361.013,-164.2488C363.9392,-165.809 366.6652,-167.7026 369,-170 377.3154,-178.1825 373.3494,-183.9197 377,-195 388.5699,-230.1172 402.5221,-270.9455 410.5173,-294.2026"/>
<polygon fill="#000000" fill-opacity="0.200000" stroke="#000000" stroke-width="2" stroke-opacity="0.200000" points="407.2698,-295.5218 413.8345,-303.8377 413.8885,-293.243 407.2698,-295.5218"/>
</g>
<!-- src/controllers/v0/feed/routes/feed.router.ts&#45;&gt;src/controllers/v0/feed/models/FeedItem.ts -->
<g id="edge4" class="edge">
<title>src/controllers/v0/feed/routes/feed.router.ts&#45;&gt;src/controllers/v0/feed/models/FeedItem.ts</title>
<path fill="none" stroke="#000000" stroke-width="2" stroke-opacity="0.200000" d="M361.183,-157C365.5717,-157 370.0957,-157 374.5796,-157"/>
<polygon fill="#000000" fill-opacity="0.200000" stroke="#000000" stroke-width="2" stroke-opacity="0.200000" points="374.8868,-160.5001 384.8868,-157 374.8868,-153.5001 374.8868,-160.5001"/>
</g>
<!-- src/controllers/v0/users/routes/auth.router.ts -->
<g id="node8" class="node">
<title>src/controllers/v0/users/routes/auth.router.ts</title>
<g id="a_node8"><a xlink:href="src/controllers/v0/users/routes/auth.router.ts" xlink:title="auth.router.ts">
<path fill="#ddfeff" stroke="#000000" d="M446,-72C446,-72 388,-72 388,-72 385,-72 382,-69 382,-66 382,-66 382,-60 382,-60 382,-57 385,-54 388,-54 388,-54 446,-54 446,-54 449,-54 452,-57 452,-60 452,-60 452,-66 452,-66 452,-69 449,-72 446,-72"/>
<text text-anchor="middle" x="417" y="-60.8" font-family="Helvetica,sans-Serif" font-size="9.00" fill="#000000">auth.router.ts</text>
</a>
</g>
</g>
<!-- src/controllers/v0/feed/routes/feed.router.ts&#45;&gt;src/controllers/v0/users/routes/auth.router.ts -->
<g id="edge3" class="edge">
<title>src/controllers/v0/feed/routes/feed.router.ts&#45;&gt;src/controllers/v0/users/routes/auth.router.ts</title>
<path fill="none" stroke="#000000" stroke-width="2" stroke-opacity="0.200000" d="M334.7255,-147.9869C349.9739,-132.2357 381.681,-99.4834 400.9749,-79.5534"/>
<polygon fill="#000000" fill-opacity="0.200000" stroke="#000000" stroke-width="2" stroke-opacity="0.200000" points="403.7264,-81.7432 408.1672,-72.1239 398.697,-76.8743 403.7264,-81.7432"/>
</g>
<!-- src/controllers/v0/index.router.ts -->
<g id="node5" class="node">
<title>src/controllers/v0/index.router.ts</title>
<g id="a_node5"><a xlink:href="src/controllers/v0/index.router.ts" xlink:title="index.router.ts">
<path fill="#ddfeff" stroke="#000000" d="M261,-166C261,-166 199,-166 199,-166 196,-166 193,-163 193,-160 193,-160 193,-154 193,-154 193,-151 196,-148 199,-148 199,-148 261,-148 261,-148 264,-148 267,-151 267,-154 267,-154 267,-160 267,-160 267,-163 264,-166 261,-166"/>
<text text-anchor="middle" x="230" y="-154.8" font-family="Helvetica,sans-Serif" font-size="9.00" fill="#000000">index.router.ts</text>
</a>
</g>
</g>
<!-- src/controllers/v0/index.router.ts&#45;&gt;src/controllers/v0/feed/routes/feed.router.ts -->
<g id="edge5" class="edge">
<title>src/controllers/v0/index.router.ts&#45;&gt;src/controllers/v0/feed/routes/feed.router.ts</title>
<path fill="none" stroke="#000000" stroke-width="2" stroke-opacity="0.200000" d="M267.1161,-157C271.5086,-157 276.0294,-157 280.5207,-157"/>
<polygon fill="#000000" fill-opacity="0.200000" stroke="#000000" stroke-width="2" stroke-opacity="0.200000" points="280.8727,-160.5001 290.8727,-157 280.8726,-153.5001 280.8727,-160.5001"/>
</g>
<!-- src/controllers/v0/users/routes/user.router.ts -->
<g id="node9" class="node">
<title>src/controllers/v0/users/routes/user.router.ts</title>
<g id="a_node9"><a xlink:href="src/controllers/v0/users/routes/user.router.ts" xlink:title="user.router.ts">
<path fill="#ddfeff" stroke="#000000" d="M355,-72C355,-72 297,-72 297,-72 294,-72 291,-69 291,-66 291,-66 291,-60 291,-60 291,-57 294,-54 297,-54 297,-54 355,-54 355,-54 358,-54 361,-57 361,-60 361,-60 361,-66 361,-66 361,-69 358,-72 355,-72"/>
<text text-anchor="middle" x="326" y="-60.8" font-family="Helvetica,sans-Serif" font-size="9.00" fill="#000000">user.router.ts</text>
</a>
</g>
</g>
<!-- src/controllers/v0/index.router.ts&#45;&gt;src/controllers/v0/users/routes/user.router.ts -->
<g id="edge6" class="edge">
<title>src/controllers/v0/index.router.ts&#45;&gt;src/controllers/v0/users/routes/user.router.ts</title>
<path fill="none" stroke="#000000" stroke-width="2" stroke-opacity="0.200000" d="M239.2049,-147.9869C255.3626,-132.1657 289.038,-99.1919 309.365,-79.2885"/>
<polygon fill="#000000" fill-opacity="0.200000" stroke="#000000" stroke-width="2" stroke-opacity="0.200000" points="311.9855,-81.621 316.6819,-72.1239 307.0881,-76.6194 311.9855,-81.621"/>
</g>
<!-- src/controllers/v0/model.index.ts -->
<g id="node6" class="node">
<title>src/controllers/v0/model.index.ts</title>
<g id="a_node6"><a xlink:href="src/controllers/v0/model.index.ts" xlink:title="model.index.ts">
<path fill="#ddfeff" stroke="#000000" d="M358,-244C358,-244 294,-244 294,-244 291,-244 288,-241 288,-238 288,-238 288,-232 288,-232 288,-229 291,-226 294,-226 294,-226 358,-226 358,-226 361,-226 364,-229 364,-232 364,-232 364,-238 364,-238 364,-241 361,-244 358,-244"/>
<text text-anchor="middle" x="326" y="-232.8" font-family="Helvetica,sans-Serif" font-size="9.00" fill="#000000">model.index.ts</text>
</a>
</g>
</g>
<!-- src/controllers/v0/model.index.ts&#45;&gt;src/controllers/v0/feed/models/FeedItem.ts -->
<g id="edge7" class="edge">
<title>src/controllers/v0/model.index.ts&#45;&gt;src/controllers/v0/feed/models/FeedItem.ts</title>
<path fill="none" stroke="#000000" stroke-width="2" stroke-opacity="0.200000" d="M338.9714,-225.8482C348.5095,-218.5023 361.1314,-207.3955 369,-195 374.0311,-187.0744 370.816,-181.0697 377.7221,-171.7459"/>
<polygon fill="#000000" fill-opacity="0.200000" stroke="#000000" stroke-width="2" stroke-opacity="0.200000" points="380.4508,-173.9553 384.8022,-164.2953 375.3765,-169.1334 380.4508,-173.9553"/>
</g>
<!-- src/controllers/v0/users/models/User.ts -->
<g id="node7" class="node">
<title>src/controllers/v0/users/models/User.ts</title>
<g id="a_node7"><a xlink:href="src/controllers/v0/users/models/User.ts" xlink:title="User.ts">
<path fill="#ddfeff" stroke="#000000" d="M529,-72C529,-72 487,-72 487,-72 484,-72 481,-69 481,-66 481,-66 481,-60 481,-60 481,-57 484,-54 487,-54 487,-54 529,-54 529,-54 532,-54 535,-57 535,-60 535,-60 535,-66 535,-66 535,-69 532,-72 529,-72"/>
<text text-anchor="middle" x="508" y="-60.8" font-family="Helvetica,sans-Serif" font-size="9.00" fill="#000000">User.ts</text>
</a>
</g>
</g>
<!-- src/controllers/v0/model.index.ts&#45;&gt;src/controllers/v0/users/models/User.ts -->
<g id="edge8" class="edge">
<title>src/controllers/v0/model.index.ts&#45;&gt;src/controllers/v0/users/models/User.ts</title>
<path fill="none" stroke="#000000" stroke-width="2" stroke-opacity="0.200000" d="M364.134,-233.5331C395.1288,-230.3417 437.9975,-221.081 465,-195 481.3604,-179.1979 496.9707,-114.9426 504.0436,-82.2721"/>
<polygon fill="#000000" fill-opacity="0.200000" stroke="#000000" stroke-width="2" stroke-opacity="0.200000" points="507.5362,-82.6718 506.1765,-72.1646 500.6871,-81.2264 507.5362,-82.6718"/>
</g>
<!-- src/controllers/v0/users/routes/auth.router.ts&#45;&gt;src/controllers/v0/users/models/User.ts -->
<g id="edge9" class="edge">
<title>src/controllers/v0/users/routes/auth.router.ts&#45;&gt;src/controllers/v0/users/models/User.ts</title>
<path fill="none" stroke="#000000" stroke-width="2" stroke-opacity="0.200000" d="M452.183,-63C458.2707,-63 464.6185,-63 470.7586,-63"/>
<polygon fill="#000000" fill-opacity="0.200000" stroke="#000000" stroke-width="2" stroke-opacity="0.200000" points="470.8136,-66.5001 480.8135,-63 470.8135,-59.5001 470.8136,-66.5001"/>
</g>
<!-- src/controllers/v0/users/routes/user.router.ts&#45;&gt;src/controllers/v0/users/models/User.ts -->
<g id="edge10" class="edge">
<title>src/controllers/v0/users/routes/user.router.ts&#45;&gt;src/controllers/v0/users/models/User.ts</title>
<path fill="none" stroke="#000000" stroke-width="2" stroke-opacity="0.200000" d="M351.3658,-53.9885C359.4509,-51.5376 368.5045,-49.2234 377,-48 415.7118,-42.4252 426.4383,-41.4672 465,-48 468.9221,-48.6644 472.9634,-49.6471 476.9256,-50.7972"/>
<polygon fill="#000000" fill-opacity="0.200000" stroke="#000000" stroke-width="2" stroke-opacity="0.200000" points="475.9064,-54.1462 486.4987,-53.9153 478.0743,-47.4903 475.9064,-54.1462"/>
</g>
<!-- src/controllers/v0/users/routes/user.router.ts&#45;&gt;src/controllers/v0/users/routes/auth.router.ts -->
<g id="edge11" class="edge">
<title>src/controllers/v0/users/routes/user.router.ts&#45;&gt;src/controllers/v0/users/routes/auth.router.ts</title>
<path fill="none" stroke="#000000" stroke-width="2" stroke-opacity="0.200000" d="M361.183,-63C364.6902,-63 368.2838,-63 371.8743,-63"/>
<polygon fill="#000000" fill-opacity="0.200000" stroke="#000000" stroke-width="2" stroke-opacity="0.200000" points="371.9106,-66.5001 381.9106,-63 371.9106,-59.5001 371.9106,-66.5001"/>
</g>
<!-- src/migrations/20190325&#45;create&#45;feed&#45;item.js -->
<g id="node10" class="node">
<title>src/migrations/20190325&#45;create&#45;feed&#45;item.js</title>
<g id="a_node10"><a xlink:href="src/migrations/20190325-create-feed-item.js" xlink:title="20190325&#45;create&#45;feed&#45;item.js">
<path fill="#ffffcc" stroke="#000000" d="M155,-319C155,-319 30,-319 30,-319 27,-319 24,-316 24,-313 24,-313 24,-307 24,-307 24,-304 27,-301 30,-301 30,-301 155,-301 155,-301 158,-301 161,-304 161,-307 161,-307 161,-313 161,-313 161,-316 158,-319 155,-319"/>
<text text-anchor="middle" x="92.5" y="-307.8" font-family="Helvetica,sans-Serif" font-size="9.00" fill="#000000">20190325&#45;create&#45;feed&#45;item.js</text>
</a>
</g>
</g>
<!-- src/migrations/20190328&#45;create&#45;user.js -->
<g id="node11" class="node">
<title>src/migrations/20190328&#45;create&#45;user.js</title>
<g id="a_node11"><a xlink:href="src/migrations/20190328-create-user.js" xlink:title="20190328&#45;create&#45;user.js">
<path fill="#ffffcc" stroke="#000000" d="M145,-289C145,-289 40,-289 40,-289 37,-289 34,-286 34,-283 34,-283 34,-277 34,-277 34,-274 37,-271 40,-271 40,-271 145,-271 145,-271 148,-271 151,-274 151,-277 151,-277 151,-283 151,-283 151,-286 148,-289 145,-289"/>
<text text-anchor="middle" x="92.5" y="-277.8" font-family="Helvetica,sans-Serif" font-size="9.00" fill="#000000">20190328&#45;create&#45;user.js</text>
</a>
</g>
</g>
<!-- src/sequelize.ts -->
<g id="node12" class="node">
<title>src/sequelize.ts</title>
<g id="a_node12"><a xlink:href="src/sequelize.ts" xlink:title="sequelize.ts">
<path fill="#ddfeff" stroke="#000000" d="M256.5,-333C256.5,-333 203.5,-333 203.5,-333 200.5,-333 197.5,-330 197.5,-327 197.5,-327 197.5,-321 197.5,-321 197.5,-318 200.5,-315 203.5,-315 203.5,-315 256.5,-315 256.5,-315 259.5,-315 262.5,-318 262.5,-321 262.5,-321 262.5,-327 262.5,-327 262.5,-330 259.5,-333 256.5,-333"/>
<text text-anchor="middle" x="230" y="-321.8" font-family="Helvetica,sans-Serif" font-size="9.00" fill="#000000">sequelize.ts</text>
</a>
</g>
</g>
<!-- src/sequelize.ts&#45;&gt;src/config/config.ts -->
<g id="edge12" class="edge">
<title>src/sequelize.ts&#45;&gt;src/config/config.ts</title>
<path fill="none" stroke="#000000" stroke-width="2" stroke-opacity="0.200000" d="M262.7586,-326.5707C308.2293,-329.6806 393.011,-333.8213 465,-328 466.9224,-327.8445 468.8885,-327.6506 470.8705,-327.4274"/>
<polygon fill="#000000" fill-opacity="0.200000" stroke="#000000" stroke-width="2" stroke-opacity="0.200000" points="471.3325,-330.8969 480.7843,-326.11 470.4103,-323.9579 471.3325,-330.8969"/>
</g>
<!-- src/server.ts -->
<g id="node13" class="node">
<title>src/server.ts</title>
<g id="a_node13"><a xlink:href="src/server.ts" xlink:title="server.ts">
<path fill="#ddfeff" stroke="#000000" d="M113.5,-244C113.5,-244 71.5,-244 71.5,-244 68.5,-244 65.5,-241 65.5,-238 65.5,-238 65.5,-232 65.5,-232 65.5,-229 68.5,-226 71.5,-226 71.5,-226 113.5,-226 113.5,-226 116.5,-226 119.5,-229 119.5,-232 119.5,-232 119.5,-238 119.5,-238 119.5,-241 116.5,-244 113.5,-244"/>
<text text-anchor="middle" x="92.5" y="-232.8" font-family="Helvetica,sans-Serif" font-size="9.00" fill="#000000">server.ts</text>
</a>
</g>
</g>
<!-- src/server.ts&#45;&gt;src/controllers/v0/index.router.ts -->
<g id="edge13" class="edge">
<title>src/server.ts&#45;&gt;src/controllers/v0/index.router.ts</title>
<path fill="none" stroke="#000000" stroke-width="2" stroke-opacity="0.200000" d="M101.5089,-225.9688C116.0824,-211.8788 146.3071,-184.7551 177,-170 179.0119,-169.0328 181.1025,-168.1335 183.2402,-167.2978"/>
<polygon fill="#000000" fill-opacity="0.200000" stroke="#000000" stroke-width="2" stroke-opacity="0.200000" points="184.4841,-170.5716 192.8166,-164.0278 182.2221,-163.9471 184.4841,-170.5716"/>
</g>
<!-- src/server.ts&#45;&gt;src/controllers/v0/model.index.ts -->
<g id="edge14" class="edge">
<title>src/server.ts&#45;&gt;src/controllers/v0/model.index.ts</title>
<path fill="none" stroke="#000000" stroke-width="2" stroke-opacity="0.200000" d="M119.7424,-235C158.4095,-235 229.8128,-235 277.6127,-235"/>
<polygon fill="#000000" fill-opacity="0.200000" stroke="#000000" stroke-width="2" stroke-opacity="0.200000" points="277.7313,-238.5001 287.7312,-235 277.7312,-231.5001 277.7313,-238.5001"/>
</g>
<!-- src/server.ts&#45;&gt;src/sequelize.ts -->
<g id="edge15" class="edge">
<title>src/server.ts&#45;&gt;src/sequelize.ts</title>
<path fill="none" stroke="#000000" stroke-width="2" stroke-opacity="0.200000" d="M119.8501,-239.1156C135.5297,-242.5816 154.8441,-248.8424 169,-260 174.3281,-264.1995 172.744,-267.7169 177,-273 187.3416,-285.8373 200.7307,-298.6964 211.4639,-308.291"/>
<polygon fill="#000000" fill-opacity="0.200000" stroke="#000000" stroke-width="2" stroke-opacity="0.200000" points="209.2289,-310.9861 219.0595,-314.9372 213.8385,-305.7181 209.2289,-310.9861"/>
</g>
</g>
</svg>
