<?xml version="1.0" encoding="UTF-8" standalone="no"?>
<!DOCTYPE svg PUBLIC "-//W3C//DTD SVG 1.1//EN"
 "http://www.w3.org/Graphics/SVG/1.1/DTD/svg11.dtd">
<!-- Generated by graphviz version 2.40.1 (20161225.0304)
 -->
<!-- Title: dependency&#45;cruiser output Pages: 1 -->
<svg width="168pt" height="324pt"
 viewBox="0.00 0.00 168.00 324.00" xmlns="http://www.w3.org/2000/svg" xmlns:xlink="http://www.w3.org/1999/xlink">
<g id="graph0" class="graph" transform="scale(1 1) rotate(0) translate(4 320)">
<title>dependency&#45;cruiser output</title>
<polygon fill="#ffffff" stroke="transparent" points="-4,4 -4,-320 164,-320 164,4 -4,4"/>
<g id="clust1" class="cluster">
<title>cluster_src</title>
<path fill="#ffffff" stroke="#000000" stroke-width="2" d="M20,-8C20,-8 140,-8 140,-8 146,-8 152,-14 152,-20 152,-20 152,-296 152,-296 152,-302 146,-308 140,-308 140,-308 20,-308 20,-308 14,-308 8,-302 8,-296 8,-296 8,-20 8,-20 8,-14 14,-8 20,-8"/>
<text text-anchor="middle" x="80" y="-296.8" font-family="Helvetica,sans-Serif" font-weight="bold" font-size="9.00" fill="#000000">src</text>
</g>
<g id="clust2" class="cluster">
<title>cluster_src/lambda</title>
<path fill="#ffffff" stroke="#000000" stroke-width="2" d="M28,-16C28,-16 132,-16 132,-16 138,-16 144,-22 144,-28 144,-28 144,-270 144,-270 144,-276 138,-282 132,-282 132,-282 28,-282 28,-282 22,-282 16,-276 16,-270 16,-270 16,-28 16,-28 16,-22 22,-16 28,-16"/>
<text text-anchor="middle" x="80" y="-270.8" font-family="Helvetica,sans-Serif" font-weight="bold" font-size="9.00" fill="#000000">lambda</text>
</g>
<g id="clust3" class="cluster">
<title>cluster_src/lambda/http</title>
<path fill="#ffffff" stroke="#000000" stroke-width="2" d="M45.5,-84C45.5,-84 114.5,-84 114.5,-84 120.5,-84 126.5,-90 126.5,-96 126.5,-96 126.5,-244 126.5,-244 126.5,-250 120.5,-256 114.5,-256 114.5,-256 45.5,-256 45.5,-256 39.5,-256 33.5,-250 33.5,-244 33.5,-244 33.5,-96 33.5,-96 33.5,-90 39.5,-84 45.5,-84"/>
<text text-anchor="middle" x="80" y="-244.8" font-family="Helvetica,sans-Serif" font-weight="bold" font-size="9.00" fill="#000000">http</text>
</g>
<g id="clust4" class="cluster">
<title>cluster_src/lambda/s3</title>
<path fill="#ffffff" stroke="#000000" stroke-width="2" d="M36,-24C36,-24 124,-24 124,-24 130,-24 136,-30 136,-36 136,-36 136,-64 136,-64 136,-70 130,-76 124,-76 124,-76 36,-76 36,-76 30,-76 24,-70 24,-64 24,-64 24,-36 24,-36 24,-30 30,-24 36,-24"/>
<text text-anchor="middle" x="80" y="-64.8" font-family="Helvetica,sans-Serif" font-weight="bold" font-size="9.00" fill="#000000">s3</text>
</g>
<!-- src/lambda/http/createGroup.ts -->
<g id="node1" class="node">
<title>src/lambda/http/createGroup.ts</title>
<g id="a_node1"><a xlink:href="src/lambda/http/createGroup.ts" xlink:title="createGroup.ts">
<path fill="#ccffcc" stroke="#000000" d="M112.5,-230C112.5,-230 47.5,-230 47.5,-230 44.5,-230 41.5,-227 41.5,-224 41.5,-224 41.5,-218 41.5,-218 41.5,-215 44.5,-212 47.5,-212 47.5,-212 112.5,-212 112.5,-212 115.5,-212 118.5,-215 118.5,-218 118.5,-218 118.5,-224 118.5,-224 118.5,-227 115.5,-230 112.5,-230"/>
<text text-anchor="middle" x="80" y="-218.8" font-family="Helvetica,sans-Serif" font-size="9.00" fill="#000000">createGroup.ts</text>
</a>
</g>
</g>
<!-- src/lambda/http/createImage.ts -->
<g id="node2" class="node">
<title>src/lambda/http/createImage.ts</title>
<g id="a_node2"><a xlink:href="src/lambda/http/createImage.ts" xlink:title="createImage.ts">
<path fill="#ccffcc" stroke="#000000" d="M112.5,-200C112.5,-200 47.5,-200 47.5,-200 44.5,-200 41.5,-197 41.5,-194 41.5,-194 41.5,-188 41.5,-188 41.5,-185 44.5,-182 47.5,-182 47.5,-182 112.5,-182 112.5,-182 115.5,-182 118.5,-185 118.5,-188 118.5,-188 118.5,-194 118.5,-194 118.5,-197 115.5,-200 112.5,-200"/>
<text text-anchor="middle" x="80" y="-188.8" font-family="Helvetica,sans-Serif" font-size="9.00" fill="#000000">createImage.ts</text>
</a>
</g>
</g>
<!-- src/lambda/http/getGroups.ts -->
<g id="node3" class="node">
<title>src/lambda/http/getGroups.ts</title>
<g id="a_node3"><a xlink:href="src/lambda/http/getGroups.ts" xlink:title="getGroups.ts">
<path fill="#ccffcc" stroke="#000000" d="M108,-170C108,-170 52,-170 52,-170 49,-170 46,-167 46,-164 46,-164 46,-158 46,-158 46,-155 49,-152 52,-152 52,-152 108,-152 108,-152 111,-152 114,-155 114,-158 114,-158 114,-164 114,-164 114,-167 111,-170 108,-170"/>
<text text-anchor="middle" x="80" y="-158.8" font-family="Helvetica,sans-Serif" font-size="9.00" fill="#000000">getGroups.ts</text>
</a>
</g>
</g>
<!-- src/lambda/http/getImage.ts -->
<g id="node4" class="node">
<title>src/lambda/http/getImage.ts</title>
<g id="a_node4"><a xlink:href="src/lambda/http/getImage.ts" xlink:title="getImage.ts">
<path fill="#ccffcc" stroke="#000000" d="M106,-140C106,-140 54,-140 54,-140 51,-140 48,-137 48,-134 48,-134 48,-128 48,-128 48,-125 51,-122 54,-122 54,-122 106,-122 106,-122 109,-122 112,-125 112,-128 112,-128 112,-134 112,-134 112,-137 109,-140 106,-140"/>
<text text-anchor="middle" x="80" y="-128.8" font-family="Helvetica,sans-Serif" font-size="9.00" fill="#000000">getImage.ts</text>
</a>
</g>
</g>
<!-- src/lambda/http/getImages.ts -->
<g id="node5" class="node">
<title>src/lambda/http/getImages.ts</title>
<g id="a_node5"><a xlink:href="src/lambda/http/getImages.ts" xlink:title="getImages.ts">
<path fill="#ccffcc" stroke="#000000" d="M108,-110C108,-110 52,-110 52,-110 49,-110 46,-107 46,-104 46,-104 46,-98 46,-98 46,-95 49,-92 52,-92 52,-92 108,-92 108,-92 111,-92 114,-95 114,-98 114,-98 114,-104 114,-104 114,-107 111,-110 108,-110"/>
<text text-anchor="middle" x="80" y="-98.8" font-family="Helvetica,sans-Serif" font-size="9.00" fill="#000000">getImages.ts</text>
</a>
</g>
</g>
<!-- src/lambda/s3/sendNotifications.ts -->
<g id="node6" class="node">
<title>src/lambda/s3/sendNotifications.ts</title>
<g id="a_node6"><a xlink:href="src/lambda/s3/sendNotifications.ts" xlink:title="sendNotifications.ts">
<path fill="#ccffcc" stroke="#000000" d="M122,-50C122,-50 38,-50 38,-50 35,-50 32,-47 32,-44 32,-44 32,-38 32,-38 32,-35 35,-32 38,-32 38,-32 122,-32 122,-32 125,-32 128,-35 128,-38 128,-38 128,-44 128,-44 128,-47 125,-50 122,-50"/>
<text text-anchor="middle" x="80" y="-38.8" font-family="Helvetica,sans-Serif" font-size="9.00" fill="#000000">sendNotifications.ts</text>
</a>
</g>
</g>
</g>
</svg>
