<?xml version="1.0" encoding="UTF-8" standalone="no"?>
<!DOCTYPE svg PUBLIC "-//W3C//DTD SVG 1.1//EN"
 "http://www.w3.org/Graphics/SVG/1.1/DTD/svg11.dtd">
<!-- Generated by graphviz version 2.40.1 (20161225.0304)
 -->
<!-- Title: dependency&#45;cruiser output Pages: 1 -->
<svg width="173pt" height="504pt"
 viewBox="0.00 0.00 173.00 504.00" xmlns="http://www.w3.org/2000/svg" xmlns:xlink="http://www.w3.org/1999/xlink">
<g id="graph0" class="graph" transform="scale(1 1) rotate(0) translate(4 500)">
<title>dependency&#45;cruiser output</title>
<polygon fill="#ffffff" stroke="transparent" points="-4,4 -4,-500 169,-500 169,4 -4,4"/>
<g id="clust1" class="cluster">
<title>cluster_src</title>
<path fill="#ffffff" stroke="#000000" stroke-width="2" d="M20,-8C20,-8 145,-8 145,-8 151,-8 157,-14 157,-20 157,-20 157,-476 157,-476 157,-482 151,-488 145,-488 145,-488 20,-488 20,-488 14,-488 8,-482 8,-476 8,-476 8,-20 8,-20 8,-14 14,-8 20,-8"/>
<text text-anchor="middle" x="82.5" y="-476.8" font-family="Helvetica,sans-Serif" font-weight="bold" font-size="9.00" fill="#000000">src</text>
</g>
<g id="clust2" class="cluster">
<title>cluster_src/lambda</title>
<path fill="#ffffff" stroke="#000000" stroke-width="2" d="M28,-16C28,-16 137,-16 137,-16 143,-16 149,-22 149,-28 149,-28 149,-450 149,-450 149,-456 143,-462 137,-462 137,-462 28,-462 28,-462 22,-462 16,-456 16,-450 16,-450 16,-28 16,-28 16,-22 22,-16 28,-16"/>
<text text-anchor="middle" x="82.5" y="-450.8" font-family="Helvetica,sans-Serif" font-weight="bold" font-size="9.00" fill="#000000">lambda</text>
</g>
<g id="clust3" class="cluster">
<title>cluster_src/lambda/dynamoDb</title>
<path fill="#ffffff" stroke="#000000" stroke-width="2" d="M36,-384C36,-384 129,-384 129,-384 135,-384 141,-390 141,-396 141,-396 141,-424 141,-424 141,-430 135,-436 129,-436 129,-436 36,-436 36,-436 30,-436 24,-430 24,-424 24,-424 24,-396 24,-396 24,-390 30,-384 36,-384"/>
<text text-anchor="middle" x="82.5" y="-424.8" font-family="Helvetica,sans-Serif" font-weight="bold" font-size="9.00" fill="#000000">dynamoDb</text>
</g>
<g id="clust4" class="cluster">
<title>cluster_src/lambda/http</title>
<path fill="#ffffff" stroke="#000000" stroke-width="2" d="M48,-204C48,-204 117,-204 117,-204 123,-204 129,-210 129,-216 129,-216 129,-364 129,-364 129,-370 123,-376 117,-376 117,-376 48,-376 48,-376 42,-376 36,-370 36,-364 36,-364 36,-216 36,-216 36,-210 42,-204 48,-204"/>
<text text-anchor="middle" x="82.5" y="-364.8" font-family="Helvetica,sans-Serif" font-weight="bold" font-size="9.00" fill="#000000">http</text>
</g>
<g id="clust5" class="cluster">
<title>cluster_src/lambda/s3</title>
<path fill="#ffffff" stroke="#000000" stroke-width="2" d="M38.5,-114C38.5,-114 126.5,-114 126.5,-114 132.5,-114 138.5,-120 138.5,-126 138.5,-126 138.5,-184 138.5,-184 138.5,-190 132.5,-196 126.5,-196 126.5,-196 38.5,-196 38.5,-196 32.5,-196 26.5,-190 26.5,-184 26.5,-184 26.5,-126 26.5,-126 26.5,-120 32.5,-114 38.5,-114"/>
<text text-anchor="middle" x="82.5" y="-184.8" font-family="Helvetica,sans-Serif" font-weight="bold" font-size="9.00" fill="#000000">s3</text>
</g>
<g id="clust6" class="cluster">
<title>cluster_src/lambda/websocket</title>
<path fill="#ffffff" stroke="#000000" stroke-width="2" d="M51.5,-24C51.5,-24 113.5,-24 113.5,-24 119.5,-24 125.5,-30 125.5,-36 125.5,-36 125.5,-94 125.5,-94 125.5,-100 119.5,-106 113.5,-106 113.5,-106 51.5,-106 51.5,-106 45.5,-106 39.5,-100 39.5,-94 39.5,-94 39.5,-36 39.5,-36 39.5,-30 45.5,-24 51.5,-24"/>
<text text-anchor="middle" x="82.5" y="-94.8" font-family="Helvetica,sans-Serif" font-weight="bold" font-size="9.00" fill="#000000">websocket</text>
</g>
<!-- src/lambda/dynamoDb/elasticSearchSync.ts -->
<g id="node1" class="node">
<title>src/lambda/dynamoDb/elasticSearchSync.ts</title>
<g id="a_node1"><a xlink:href="src/lambda/dynamoDb/elasticSearchSync.ts" xlink:title="elasticSearchSync.ts">
<path fill="#ccffcc" stroke="#000000" d="M127,-410C127,-410 38,-410 38,-410 35,-410 32,-407 32,-404 32,-404 32,-398 32,-398 32,-395 35,-392 38,-392 38,-392 127,-392 127,-392 130,-392 133,-395 133,-398 133,-398 133,-404 133,-404 133,-407 130,-410 127,-410"/>
<text text-anchor="middle" x="82.5" y="-398.8" font-family="Helvetica,sans-Serif" font-size="9.00" fill="#000000">elasticSearchSync.ts</text>
</a>
</g>
</g>
<!-- src/lambda/http/createGroup.ts -->
<g id="node2" class="node">
<title>src/lambda/http/createGroup.ts</title>
<g id="a_node2"><a xlink:href="src/lambda/http/createGroup.ts" xlink:title="createGroup.ts">
<path fill="#ccffcc" stroke="#000000" d="M115,-350C115,-350 50,-350 50,-350 47,-350 44,-347 44,-344 44,-344 44,-338 44,-338 44,-335 47,-332 50,-332 50,-332 115,-332 115,-332 118,-332 121,-335 121,-338 121,-338 121,-344 121,-344 121,-347 118,-350 115,-350"/>
<text text-anchor="middle" x="82.5" y="-338.8" font-family="Helvetica,sans-Serif" font-size="9.00" fill="#000000">createGroup.ts</text>
</a>
</g>
</g>
<!-- src/lambda/http/createImage.ts -->
<g id="node3" class="node">
<title>src/lambda/http/createImage.ts</title>
<g id="a_node3"><a xlink:href="src/lambda/http/createImage.ts" xlink:title="createImage.ts">
<path fill="#ccffcc" stroke="#000000" d="M115,-320C115,-320 50,-320 50,-320 47,-320 44,-317 44,-314 44,-314 44,-308 44,-308 44,-305 47,-302 50,-302 50,-302 115,-302 115,-302 118,-302 121,-305 121,-308 121,-308 121,-314 121,-314 121,-317 118,-320 115,-320"/>
<text text-anchor="middle" x="82.5" y="-308.8" font-family="Helvetica,sans-Serif" font-size="9.00" fill="#000000">createImage.ts</text>
</a>
</g>
</g>
<!-- src/lambda/http/getGroups.ts -->
<g id="node4" class="node">
<title>src/lambda/http/getGroups.ts</title>
<g id="a_node4"><a xlink:href="src/lambda/http/getGroups.ts" xlink:title="getGroups.ts">
<path fill="#ccffcc" stroke="#000000" d="M110.5,-290C110.5,-290 54.5,-290 54.5,-290 51.5,-290 48.5,-287 48.5,-284 48.5,-284 48.5,-278 48.5,-278 48.5,-275 51.5,-272 54.5,-272 54.5,-272 110.5,-272 110.5,-272 113.5,-272 116.5,-275 116.5,-278 116.5,-278 116.5,-284 116.5,-284 116.5,-287 113.5,-290 110.5,-290"/>
<text text-anchor="middle" x="82.5" y="-278.8" font-family="Helvetica,sans-Serif" font-size="9.00" fill="#000000">getGroups.ts</text>
</a>
</g>
</g>
<!-- src/lambda/http/getImage.ts -->
<g id="node5" class="node">
<title>src/lambda/http/getImage.ts</title>
<g id="a_node5"><a xlink:href="src/lambda/http/getImage.ts" xlink:title="getImage.ts">
<path fill="#ccffcc" stroke="#000000" d="M108.5,-260C108.5,-260 56.5,-260 56.5,-260 53.5,-260 50.5,-257 50.5,-254 50.5,-254 50.5,-248 50.5,-248 50.5,-245 53.5,-242 56.5,-242 56.5,-242 108.5,-242 108.5,-242 111.5,-242 114.5,-245 114.5,-248 114.5,-248 114.5,-254 114.5,-254 114.5,-257 111.5,-260 108.5,-260"/>
<text text-anchor="middle" x="82.5" y="-248.8" font-family="Helvetica,sans-Serif" font-size="9.00" fill="#000000">getImage.ts</text>
</a>
</g>
</g>
<!-- src/lambda/http/getImages.ts -->
<g id="node6" class="node">
<title>src/lambda/http/getImages.ts</title>
<g id="a_node6"><a xlink:href="src/lambda/http/getImages.ts" xlink:title="getImages.ts">
<path fill="#ccffcc" stroke="#000000" d="M110.5,-230C110.5,-230 54.5,-230 54.5,-230 51.5,-230 48.5,-227 48.5,-224 48.5,-224 48.5,-218 48.5,-218 48.5,-215 51.5,-212 54.5,-212 54.5,-212 110.5,-212 110.5,-212 113.5,-212 116.5,-215 116.5,-218 116.5,-218 116.5,-224 116.5,-224 116.5,-227 113.5,-230 110.5,-230"/>
<text text-anchor="middle" x="82.5" y="-218.8" font-family="Helvetica,sans-Serif" font-size="9.00" fill="#000000">getImages.ts</text>
</a>
</g>
</g>
<!-- src/lambda/s3/resizeImage.ts -->
<g id="node7" class="node">
<title>src/lambda/s3/resizeImage.ts</title>
<g id="a_node7"><a xlink:href="src/lambda/s3/resizeImage.ts" xlink:title="resizeImage.ts">
<path fill="#ccffcc" stroke="#000000" d="M114.5,-170C114.5,-170 50.5,-170 50.5,-170 47.5,-170 44.5,-167 44.5,-164 44.5,-164 44.5,-158 44.5,-158 44.5,-155 47.5,-152 50.5,-152 50.5,-152 114.5,-152 114.5,-152 117.5,-152 120.5,-155 120.5,-158 120.5,-158 120.5,-164 120.5,-164 120.5,-167 117.5,-170 114.5,-170"/>
<text text-anchor="middle" x="82.5" y="-158.8" font-family="Helvetica,sans-Serif" font-size="9.00" fill="#000000">resizeImage.ts</text>
</a>
</g>
</g>
<!-- src/lambda/s3/sendNotifications.ts -->
<g id="node8" class="node">
<title>src/lambda/s3/sendNotifications.ts</title>
<g id="a_node8"><a xlink:href="src/lambda/s3/sendNotifications.ts" xlink:title="sendNotifications.ts">
<path fill="#ccffcc" stroke="#000000" d="M124.5,-140C124.5,-140 40.5,-140 40.5,-140 37.5,-140 34.5,-137 34.5,-134 34.5,-134 34.5,-128 34.5,-128 34.5,-125 37.5,-122 40.5,-122 40.5,-122 124.5,-122 124.5,-122 127.5,-122 130.5,-125 130.5,-128 130.5,-128 130.5,-134 130.5,-134 130.5,-137 127.5,-140 124.5,-140"/>
<text text-anchor="middle" x="82.5" y="-128.8" font-family="Helvetica,sans-Serif" font-size="9.00" fill="#000000">sendNotifications.ts</text>
</a>
</g>
</g>
<!-- src/lambda/websocket/connect.ts -->
<g id="node9" class="node">
<title>src/lambda/websocket/connect.ts</title>
<g id="a_node9"><a xlink:href="src/lambda/websocket/connect.ts" xlink:title="connect.ts">
<path fill="#ccffcc" stroke="#000000" d="M105.5,-80C105.5,-80 59.5,-80 59.5,-80 56.5,-80 53.5,-77 53.5,-74 53.5,-74 53.5,-68 53.5,-68 53.5,-65 56.5,-62 59.5,-62 59.5,-62 105.5,-62 105.5,-62 108.5,-62 111.5,-65 111.5,-68 111.5,-68 111.5,-74 111.5,-74 111.5,-77 108.5,-80 105.5,-80"/>
<text text-anchor="middle" x="82.5" y="-68.8" font-family="Helvetica,sans-Serif" font-size="9.00" fill="#000000">connect.ts</text>
</a>
</g>
</g>
<!-- src/lambda/websocket/disconnect.ts -->
<g id="node10" class="node">
<title>src/lambda/websocket/disconnect.ts</title>
<g id="a_node10"><a xlink:href="src/lambda/websocket/disconnect.ts" xlink:title="disconnect.ts">
<path fill="#ccffcc" stroke="#000000" d="M111.5,-50C111.5,-50 53.5,-50 53.5,-50 50.5,-50 47.5,-47 47.5,-44 47.5,-44 47.5,-38 47.5,-38 47.5,-35 50.5,-32 53.5,-32 53.5,-32 111.5,-32 111.5,-32 114.5,-32 117.5,-35 117.5,-38 117.5,-38 117.5,-44 117.5,-44 117.5,-47 114.5,-50 111.5,-50"/>
<text text-anchor="middle" x="82.5" y="-38.8" font-family="Helvetica,sans-Serif" font-size="9.00" fill="#000000">disconnect.ts</text>
</a>
</g>
</g>
</g>
</svg>
