<?xml version="1.0" encoding="UTF-8" standalone="no"?>
<!DOCTYPE svg PUBLIC "-//W3C//DTD SVG 1.1//EN"
 "http://www.w3.org/Graphics/SVG/1.1/DTD/svg11.dtd">
<!-- Generated by graphviz version 2.40.1 (20161225.0304)
 -->
<!-- Title: dependency&#45;cruiser output Pages: 1 -->
<svg width="276pt" height="594pt"
 viewBox="0.00 0.00 276.00 594.00" xmlns="http://www.w3.org/2000/svg" xmlns:xlink="http://www.w3.org/1999/xlink">
<g id="graph0" class="graph" transform="scale(1 1) rotate(0) translate(4 590)">
<title>dependency&#45;cruiser output</title>
<polygon fill="#ffffff" stroke="transparent" points="-4,4 -4,-590 272,-590 272,4 -4,4"/>
<g id="clust1" class="cluster">
<title>cluster_src</title>
<path fill="#ffffff" stroke="#000000" stroke-width="2" d="M20,-8C20,-8 248,-8 248,-8 254,-8 260,-14 260,-20 260,-20 260,-566 260,-566 260,-572 254,-578 248,-578 248,-578 20,-578 20,-578 14,-578 8,-572 8,-566 8,-566 8,-20 8,-20 8,-14 14,-8 20,-8"/>
<text text-anchor="middle" x="134" y="-566.8" font-family="Helvetica,sans-Serif" font-weight="bold" font-size="9.00" fill="#000000">src</text>
</g>
<g id="clust2" class="cluster">
<title>cluster_src/auth</title>
<path fill="#ffffff" stroke="#000000" stroke-width="2" d="M183,-324C183,-324 240,-324 240,-324 246,-324 252,-330 252,-336 252,-336 252,-394 252,-394 252,-400 246,-406 240,-406 240,-406 183,-406 183,-406 177,-406 171,-400 171,-394 171,-394 171,-336 171,-336 171,-330 177,-324 183,-324"/>
<text text-anchor="middle" x="211.5" y="-394.8" font-family="Helvetica,sans-Serif" font-weight="bold" font-size="9.00" fill="#000000">auth</text>
</g>
<g id="clust3" class="cluster">
<title>cluster_src/lambda</title>
<path fill="#ffffff" stroke="#000000" stroke-width="2" d="M28,-16C28,-16 151,-16 151,-16 157,-16 163,-22 163,-28 163,-28 163,-540 163,-540 163,-546 157,-552 151,-552 151,-552 28,-552 28,-552 22,-552 16,-546 16,-540 16,-540 16,-28 16,-28 16,-22 22,-16 28,-16"/>
<text text-anchor="middle" x="89.5" y="-540.8" font-family="Helvetica,sans-Serif" font-weight="bold" font-size="9.00" fill="#000000">lambda</text>
</g>
<g id="clust4" class="cluster">
<title>cluster_src/lambda/auth</title>
<path fill="#ffffff" stroke="#000000" stroke-width="2" d="M36,-444C36,-444 143,-444 143,-444 149,-444 155,-450 155,-456 155,-456 155,-514 155,-514 155,-520 149,-526 143,-526 143,-526 36,-526 36,-526 30,-526 24,-520 24,-514 24,-514 24,-456 24,-456 24,-450 30,-444 36,-444"/>
<text text-anchor="middle" x="89.5" y="-514.8" font-family="Helvetica,sans-Serif" font-weight="bold" font-size="9.00" fill="#000000">auth</text>
</g>
<g id="clust5" class="cluster">
<title>cluster_src/lambda/dynamoDb</title>
<path fill="#ffffff" stroke="#000000" stroke-width="2" d="M43,-384C43,-384 136,-384 136,-384 142,-384 148,-390 148,-396 148,-396 148,-424 148,-424 148,-430 142,-436 136,-436 136,-436 43,-436 43,-436 37,-436 31,-430 31,-424 31,-424 31,-396 31,-396 31,-390 37,-384 43,-384"/>
<text text-anchor="middle" x="89.5" y="-424.8" font-family="Helvetica,sans-Serif" font-weight="bold" font-size="9.00" fill="#000000">dynamoDb</text>
</g>
<g id="clust6" class="cluster">
<title>cluster_src/lambda/http</title>
<path fill="#ffffff" stroke="#000000" stroke-width="2" d="M55,-204C55,-204 124,-204 124,-204 130,-204 136,-210 136,-216 136,-216 136,-364 136,-364 136,-370 130,-376 124,-376 124,-376 55,-376 55,-376 49,-376 43,-370 43,-364 43,-364 43,-216 43,-216 43,-210 49,-204 55,-204"/>
<text text-anchor="middle" x="89.5" y="-364.8" font-family="Helvetica,sans-Serif" font-weight="bold" font-size="9.00" fill="#000000">http</text>
</g>
<g id="clust7" class="cluster">
<title>cluster_src/lambda/s3</title>
<path fill="#ffffff" stroke="#000000" stroke-width="2" d="M45.5,-114C45.5,-114 133.5,-114 133.5,-114 139.5,-114 145.5,-120 145.5,-126 145.5,-126 145.5,-184 145.5,-184 145.5,-190 139.5,-196 133.5,-196 133.5,-196 45.5,-196 45.5,-196 39.5,-196 33.5,-190 33.5,-184 33.5,-184 33.5,-126 33.5,-126 33.5,-120 39.5,-114 45.5,-114"/>
<text text-anchor="middle" x="89.5" y="-184.8" font-family="Helvetica,sans-Serif" font-weight="bold" font-size="9.00" fill="#000000">s3</text>
</g>
<g id="clust8" class="cluster">
<title>cluster_src/lambda/websocket</title>
<path fill="#ffffff" stroke="#000000" stroke-width="2" d="M58.5,-24C58.5,-24 120.5,-24 120.5,-24 126.5,-24 132.5,-30 132.5,-36 132.5,-36 132.5,-94 132.5,-94 132.5,-100 126.5,-106 120.5,-106 120.5,-106 58.5,-106 58.5,-106 52.5,-106 46.5,-100 46.5,-94 46.5,-94 46.5,-36 46.5,-36 46.5,-30 52.5,-24 58.5,-24"/>
<text text-anchor="middle" x="89.5" y="-94.8" font-family="Helvetica,sans-Serif" font-weight="bold" font-size="9.00" fill="#000000">websocket</text>
</g>
<!-- src/auth/JwtToken.ts -->
<g id="node1" class="node">
<title>src/auth/JwtToken.ts</title>
<g id="a_node1"><a xlink:href="src/auth/JwtToken.ts" xlink:title="JwtToken.ts">
<path fill="#ccffcc" stroke="#000000" d="M238,-380C238,-380 185,-380 185,-380 182,-380 179,-377 179,-374 179,-374 179,-368 179,-368 179,-365 182,-362 185,-362 185,-362 238,-362 238,-362 241,-362 244,-365 244,-368 244,-368 244,-374 244,-374 244,-377 241,-380 238,-380"/>
<text text-anchor="middle" x="211.5" y="-368.8" font-family="Helvetica,sans-Serif" font-size="9.00" fill="#000000">JwtToken.ts</text>
</a>
</g>
</g>
<!-- src/auth/utils.ts -->
<g id="node2" class="node">
<title>src/auth/utils.ts</title>
<g id="a_node2"><a xlink:href="src/auth/utils.ts" xlink:title="utils.ts">
<path fill="#ddfeff" stroke="#000000" d="M232.5,-350C232.5,-350 190.5,-350 190.5,-350 187.5,-350 184.5,-347 184.5,-344 184.5,-344 184.5,-338 184.5,-338 184.5,-335 187.5,-332 190.5,-332 190.5,-332 232.5,-332 232.5,-332 235.5,-332 238.5,-335 238.5,-338 238.5,-338 238.5,-344 238.5,-344 238.5,-347 235.5,-350 232.5,-350"/>
<text text-anchor="middle" x="211.5" y="-338.8" font-family="Helvetica,sans-Serif" font-size="9.00" fill="#000000">utils.ts</text>
</a>
</g>
</g>
<!-- src/lambda/auth/auth0Authorizer.ts -->
<g id="node3" class="node">
<title>src/lambda/auth/auth0Authorizer.ts</title>
<g id="a_node3"><a xlink:href="src/lambda/auth/auth0Authorizer.ts" xlink:title="auth0Authorizer.ts">
<path fill="#ccffcc" stroke="#000000" d="M129,-500C129,-500 50,-500 50,-500 47,-500 44,-497 44,-494 44,-494 44,-488 44,-488 44,-485 47,-482 50,-482 50,-482 129,-482 129,-482 132,-482 135,-485 135,-488 135,-488 135,-494 135,-494 135,-497 132,-500 129,-500"/>
<text text-anchor="middle" x="89.5" y="-488.8" font-family="Helvetica,sans-Serif" font-size="9.00" fill="#000000">auth0Authorizer.ts</text>
</a>
</g>
</g>
<!-- src/lambda/auth/rs256Auth0Authorizer.ts -->
<g id="node4" class="node">
<title>src/lambda/auth/rs256Auth0Authorizer.ts</title>
<g id="a_node4"><a xlink:href="src/lambda/auth/rs256Auth0Authorizer.ts" xlink:title="rs256Auth0Authorizer.ts">
<path fill="#ccffcc" stroke="#000000" d="M141,-470C141,-470 38,-470 38,-470 35,-470 32,-467 32,-464 32,-464 32,-458 32,-458 32,-455 35,-452 38,-452 38,-452 141,-452 141,-452 144,-452 147,-455 147,-458 147,-458 147,-464 147,-464 147,-467 144,-470 141,-470"/>
<text text-anchor="middle" x="89.5" y="-458.8" font-family="Helvetica,sans-Serif" font-size="9.00" fill="#000000">rs256Auth0Authorizer.ts</text>
</a>
</g>
</g>
<!-- src/lambda/dynamoDb/elasticSearchSync.ts -->
<g id="node5" class="node">
<title>src/lambda/dynamoDb/elasticSearchSync.ts</title>
<g id="a_node5"><a xlink:href="src/lambda/dynamoDb/elasticSearchSync.ts" xlink:title="elasticSearchSync.ts">
<path fill="#ccffcc" stroke="#000000" d="M134,-410C134,-410 45,-410 45,-410 42,-410 39,-407 39,-404 39,-404 39,-398 39,-398 39,-395 42,-392 45,-392 45,-392 134,-392 134,-392 137,-392 140,-395 140,-398 140,-398 140,-404 140,-404 140,-407 137,-410 134,-410"/>
<text text-anchor="middle" x="89.5" y="-398.8" font-family="Helvetica,sans-Serif" font-size="9.00" fill="#000000">elasticSearchSync.ts</text>
</a>
</g>
</g>
<!-- src/lambda/http/createGroup.ts -->
<g id="node6" class="node">
<title>src/lambda/http/createGroup.ts</title>
<g id="a_node6"><a xlink:href="src/lambda/http/createGroup.ts" xlink:title="createGroup.ts">
<path fill="#ddfeff" stroke="#000000" d="M122,-350C122,-350 57,-350 57,-350 54,-350 51,-347 51,-344 51,-344 51,-338 51,-338 51,-335 54,-332 57,-332 57,-332 122,-332 122,-332 125,-332 128,-335 128,-338 128,-338 128,-344 128,-344 128,-347 125,-350 122,-350"/>
<text text-anchor="middle" x="89.5" y="-338.8" font-family="Helvetica,sans-Serif" font-size="9.00" fill="#000000">createGroup.ts</text>
</a>
</g>
</g>
<!-- src/lambda/http/createGroup.ts&#45;&gt;src/auth/utils.ts -->
<g id="edge1" class="edge">
<title>src/lambda/http/createGroup.ts&#45;&gt;src/auth/utils.ts</title>
<path fill="none" stroke="#000000" stroke-width="2" stroke-opacity="0.200000" d="M128.1016,-341C144.2482,-341 162.8262,-341 178.3436,-341"/>
<polygon fill="#000000" fill-opacity="0.200000" stroke="#000000" stroke-width="2" stroke-opacity="0.200000" points="178.3485,-343.1001 184.3485,-341 178.3485,-338.9001 178.3485,-343.1001"/>
</g>
<!-- src/lambda/http/createImage.ts -->
<g id="node7" class="node">
<title>src/lambda/http/createImage.ts</title>
<g id="a_node7"><a xlink:href="src/lambda/http/createImage.ts" xlink:title="createImage.ts">
<path fill="#ccffcc" stroke="#000000" d="M122,-320C122,-320 57,-320 57,-320 54,-320 51,-317 51,-314 51,-314 51,-308 51,-308 51,-305 54,-302 57,-302 57,-302 122,-302 122,-302 125,-302 128,-305 128,-308 128,-308 128,-314 128,-314 128,-317 125,-320 122,-320"/>
<text text-anchor="middle" x="89.5" y="-308.8" font-family="Helvetica,sans-Serif" font-size="9.00" fill="#000000">createImage.ts</text>
</a>
</g>
</g>
<!-- src/lambda/http/getGroups.ts -->
<g id="node8" class="node">
<title>src/lambda/http/getGroups.ts</title>
<g id="a_node8"><a xlink:href="src/lambda/http/getGroups.ts" xlink:title="getGroups.ts">
<path fill="#ccffcc" stroke="#000000" d="M117.5,-290C117.5,-290 61.5,-290 61.5,-290 58.5,-290 55.5,-287 55.5,-284 55.5,-284 55.5,-278 55.5,-278 55.5,-275 58.5,-272 61.5,-272 61.5,-272 117.5,-272 117.5,-272 120.5,-272 123.5,-275 123.5,-278 123.5,-278 123.5,-284 123.5,-284 123.5,-287 120.5,-290 117.5,-290"/>
<text text-anchor="middle" x="89.5" y="-278.8" font-family="Helvetica,sans-Serif" font-size="9.00" fill="#000000">getGroups.ts</text>
</a>
</g>
</g>
<!-- src/lambda/http/getImage.ts -->
<g id="node9" class="node">
<title>src/lambda/http/getImage.ts</title>
<g id="a_node9"><a xlink:href="src/lambda/http/getImage.ts" xlink:title="getImage.ts">
<path fill="#ccffcc" stroke="#000000" d="M115.5,-260C115.5,-260 63.5,-260 63.5,-260 60.5,-260 57.5,-257 57.5,-254 57.5,-254 57.5,-248 57.5,-248 57.5,-245 60.5,-242 63.5,-242 63.5,-242 115.5,-242 115.5,-242 118.5,-242 121.5,-245 121.5,-248 121.5,-248 121.5,-254 121.5,-254 121.5,-257 118.5,-260 115.5,-260"/>
<text text-anchor="middle" x="89.5" y="-248.8" font-family="Helvetica,sans-Serif" font-size="9.00" fill="#000000">getImage.ts</text>
</a>
</g>
</g>
<!-- src/lambda/http/getImages.ts -->
<g id="node10" class="node">
<title>src/lambda/http/getImages.ts</title>
<g id="a_node10"><a xlink:href="src/lambda/http/getImages.ts" xlink:title="getImages.ts">
<path fill="#ccffcc" stroke="#000000" d="M117.5,-230C117.5,-230 61.5,-230 61.5,-230 58.5,-230 55.5,-227 55.5,-224 55.5,-224 55.5,-218 55.5,-218 55.5,-215 58.5,-212 61.5,-212 61.5,-212 117.5,-212 117.5,-212 120.5,-212 123.5,-215 123.5,-218 123.5,-218 123.5,-224 123.5,-224 123.5,-227 120.5,-230 117.5,-230"/>
<text text-anchor="middle" x="89.5" y="-218.8" font-family="Helvetica,sans-Serif" font-size="9.00" fill="#000000">getImages.ts</text>
</a>
</g>
</g>
<!-- src/lambda/s3/resizeImage.ts -->
<g id="node11" class="node">
<title>src/lambda/s3/resizeImage.ts</title>
<g id="a_node11"><a xlink:href="src/lambda/s3/resizeImage.ts" xlink:title="resizeImage.ts">
<path fill="#ccffcc" stroke="#000000" d="M121.5,-170C121.5,-170 57.5,-170 57.5,-170 54.5,-170 51.5,-167 51.5,-164 51.5,-164 51.5,-158 51.5,-158 51.5,-155 54.5,-152 57.5,-152 57.5,-152 121.5,-152 121.5,-152 124.5,-152 127.5,-155 127.5,-158 127.5,-158 127.5,-164 127.5,-164 127.5,-167 124.5,-170 121.5,-170"/>
<text text-anchor="middle" x="89.5" y="-158.8" font-family="Helvetica,sans-Serif" font-size="9.00" fill="#000000">resizeImage.ts</text>
</a>
</g>
</g>
<!-- src/lambda/s3/sendNotifications.ts -->
<g id="node12" class="node">
<title>src/lambda/s3/sendNotifications.ts</title>
<g id="a_node12"><a xlink:href="src/lambda/s3/sendNotifications.ts" xlink:title="sendNotifications.ts">
<path fill="#ccffcc" stroke="#000000" d="M131.5,-140C131.5,-140 47.5,-140 47.5,-140 44.5,-140 41.5,-137 41.5,-134 41.5,-134 41.5,-128 41.5,-128 41.5,-125 44.5,-122 47.5,-122 47.5,-122 131.5,-122 131.5,-122 134.5,-122 137.5,-125 137.5,-128 137.5,-128 137.5,-134 137.5,-134 137.5,-137 134.5,-140 131.5,-140"/>
<text text-anchor="middle" x="89.5" y="-128.8" font-family="Helvetica,sans-Serif" font-size="9.00" fill="#000000">sendNotifications.ts</text>
</a>
</g>
</g>
<!-- src/lambda/websocket/connect.ts -->
<g id="node13" class="node">
<title>src/lambda/websocket/connect.ts</title>
<g id="a_node13"><a xlink:href="src/lambda/websocket/connect.ts" xlink:title="connect.ts">
<path fill="#ccffcc" stroke="#000000" d="M112.5,-80C112.5,-80 66.5,-80 66.5,-80 63.5,-80 60.5,-77 60.5,-74 60.5,-74 60.5,-68 60.5,-68 60.5,-65 63.5,-62 66.5,-62 66.5,-62 112.5,-62 112.5,-62 115.5,-62 118.5,-65 118.5,-68 118.5,-68 118.5,-74 118.5,-74 118.5,-77 115.5,-80 112.5,-80"/>
<text text-anchor="middle" x="89.5" y="-68.8" font-family="Helvetica,sans-Serif" font-size="9.00" fill="#000000">connect.ts</text>
</a>
</g>
</g>
<!-- src/lambda/websocket/disconnect.ts -->
<g id="node14" class="node">
<title>src/lambda/websocket/disconnect.ts</title>
<g id="a_node14"><a xlink:href="src/lambda/websocket/disconnect.ts" xlink:title="disconnect.ts">
<path fill="#ccffcc" stroke="#000000" d="M118.5,-50C118.5,-50 60.5,-50 60.5,-50 57.5,-50 54.5,-47 54.5,-44 54.5,-44 54.5,-38 54.5,-38 54.5,-35 57.5,-32 60.5,-32 60.5,-32 118.5,-32 118.5,-32 121.5,-32 124.5,-35 124.5,-38 124.5,-38 124.5,-44 124.5,-44 124.5,-47 121.5,-50 118.5,-50"/>
<text text-anchor="middle" x="89.5" y="-38.8" font-family="Helvetica,sans-Serif" font-size="9.00" fill="#000000">disconnect.ts</text>
</a>
</g>
</g>
</g>
</svg>
