<?xml version="1.0" encoding="UTF-8" standalone="no"?>
<!DOCTYPE svg PUBLIC "-//W3C//DTD SVG 1.1//EN"
 "http://www.w3.org/Graphics/SVG/1.1/DTD/svg11.dtd">
<!-- Generated by graphviz version 2.40.1 (20161225.0304)
 -->
<!-- Title: dependency&#45;cruiser output Pages: 1 -->
<svg width="625pt" height="360pt"
 viewBox="0.00 0.00 625.00 360.00" xmlns="http://www.w3.org/2000/svg" xmlns:xlink="http://www.w3.org/1999/xlink">
<g id="graph0" class="graph" transform="scale(1 1) rotate(0) translate(4 356)">
<title>dependency&#45;cruiser output</title>
<polygon fill="#ffffff" stroke="transparent" points="-4,4 -4,-356 621,-356 621,4 -4,4"/>
<g id="clust1" class="cluster">
<title>cluster_src</title>
<path fill="#ffffff" stroke="#000000" stroke-width="2" d="M20,-8C20,-8 597,-8 597,-8 603,-8 609,-14 609,-20 609,-20 609,-332 609,-332 609,-338 603,-344 597,-344 597,-344 20,-344 20,-344 14,-344 8,-338 8,-332 8,-332 8,-20 8,-20 8,-14 14,-8 20,-8"/>
<text text-anchor="middle" x="308.5" y="-332.8" font-family="Helvetica,sans-Serif" font-weight="bold" font-size="9.00" fill="#000000">src</text>
</g>
<g id="clust2" class="cluster">
<title>cluster_src/api</title>
<path fill="#ffffff" stroke="#000000" stroke-width="2" d="M452.5,-16C452.5,-16 515.5,-16 515.5,-16 521.5,-16 527.5,-22 527.5,-28 527.5,-28 527.5,-86 527.5,-86 527.5,-92 521.5,-98 515.5,-98 515.5,-98 452.5,-98 452.5,-98 446.5,-98 440.5,-92 440.5,-86 440.5,-86 440.5,-28 440.5,-28 440.5,-22 446.5,-16 452.5,-16"/>
<text text-anchor="middle" x="484" y="-86.8" font-family="Helvetica,sans-Serif" font-weight="bold" font-size="9.00" fill="#000000">api</text>
</g>
<g id="clust3" class="cluster">
<title>cluster_src/auth</title>
<path fill="#ffffff" stroke="#000000" stroke-width="2" d="M267,-253C267,-253 313,-253 313,-253 319,-253 325,-259 325,-265 325,-265 325,-293 325,-293 325,-299 319,-305 313,-305 313,-305 267,-305 267,-305 261,-305 255,-299 255,-293 255,-293 255,-265 255,-265 255,-259 261,-253 267,-253"/>
<text text-anchor="middle" x="290" y="-293.8" font-family="Helvetica,sans-Serif" font-weight="bold" font-size="9.00" fill="#000000">auth</text>
</g>
<g id="clust4" class="cluster">
<title>cluster_src/components</title>
<path fill="#ffffff" stroke="#000000" stroke-width="2" d="M345,-106C345,-106 527,-106 527,-106 533,-106 539,-112 539,-118 539,-118 539,-296 539,-296 539,-302 533,-308 527,-308 527,-308 345,-308 345,-308 339,-308 333,-302 333,-296 333,-296 333,-118 333,-118 333,-112 339,-106 345,-106"/>
<text text-anchor="middle" x="436" y="-296.8" font-family="Helvetica,sans-Serif" font-weight="bold" font-size="9.00" fill="#000000">components</text>
</g>
<g id="clust5" class="cluster">
<title>cluster_src/types</title>
<path fill="#ffffff" stroke="#000000" stroke-width="2" d="M28,-146C28,-146 143,-146 143,-146 149,-146 155,-152 155,-158 155,-158 155,-306 155,-306 155,-312 149,-318 143,-318 143,-318 28,-318 28,-318 22,-318 16,-312 16,-306 16,-306 16,-158 16,-158 16,-152 22,-146 28,-146"/>
<text text-anchor="middle" x="85.5" y="-306.8" font-family="Helvetica,sans-Serif" font-weight="bold" font-size="9.00" fill="#000000">types</text>
</g>
<!-- src/App.tsx -->
<g id="node1" class="node">
<title>src/App.tsx</title>
<g id="a_node1"><a xlink:href="src/App.tsx" xlink:title="App.tsx">
<path fill="#bbfeff" stroke="#000000" d="M311,-192C311,-192 269,-192 269,-192 266,-192 263,-189 263,-186 263,-186 263,-180 263,-180 263,-177 266,-174 269,-174 269,-174 311,-174 311,-174 314,-174 317,-177 317,-180 317,-180 317,-186 317,-186 317,-189 314,-192 311,-192"/>
<text text-anchor="middle" x="290" y="-180.8" font-family="Helvetica,sans-Serif" font-size="9.00" fill="#000000">App.tsx</text>
</a>
</g>
</g>
<!-- src/components/CreateGroup.tsx -->
<g id="node6" class="node">
<title>src/components/CreateGroup.tsx</title>
<g id="a_node6"><a xlink:href="src/components/CreateGroup.tsx" xlink:title="CreateGroup.tsx">
<path fill="#bbfeff" stroke="#000000" d="M418,-162C418,-162 347,-162 347,-162 344,-162 341,-159 341,-156 341,-156 341,-150 341,-150 341,-147 344,-144 347,-144 347,-144 418,-144 418,-144 421,-144 424,-147 424,-150 424,-150 424,-156 424,-156 424,-159 421,-162 418,-162"/>
<text text-anchor="middle" x="382.5" y="-150.8" font-family="Helvetica,sans-Serif" font-size="9.00" fill="#000000">CreateGroup.tsx</text>
</a>
</g>
</g>
<!-- src/App.tsx&#45;&gt;src/components/CreateGroup.tsx -->
<g id="edge1" class="edge">
<title>src/App.tsx&#45;&gt;src/components/CreateGroup.tsx</title>
<path fill="none" stroke="#000000" stroke-width="2" stroke-opacity="0.200000" d="M315.407,-173.9417C321.1758,-171.9395 327.2866,-169.8613 333,-168 337.2263,-166.6232 341.6689,-165.2179 346.0862,-163.8468"/>
<polygon fill="#000000" fill-opacity="0.200000" stroke="#000000" stroke-width="2" stroke-opacity="0.200000" points="346.9549,-165.7767 352.0713,-162.0041 345.719,-161.7626 346.9549,-165.7767"/>
</g>
<!-- src/components/CreateImage.tsx -->
<g id="node7" class="node">
<title>src/components/CreateImage.tsx</title>
<g id="a_node7"><a xlink:href="src/components/CreateImage.tsx" xlink:title="CreateImage.tsx">
<path fill="#bbfeff" stroke="#000000" d="M418,-222C418,-222 347,-222 347,-222 344,-222 341,-219 341,-216 341,-216 341,-210 341,-210 341,-207 344,-204 347,-204 347,-204 418,-204 418,-204 421,-204 424,-207 424,-210 424,-210 424,-216 424,-216 424,-219 421,-222 418,-222"/>
<text text-anchor="middle" x="382.5" y="-210.8" font-family="Helvetica,sans-Serif" font-size="9.00" fill="#000000">CreateImage.tsx</text>
</a>
</g>
</g>
<!-- src/App.tsx&#45;&gt;src/components/CreateImage.tsx -->
<g id="edge2" class="edge">
<title>src/App.tsx&#45;&gt;src/components/CreateImage.tsx</title>
<path fill="none" stroke="#000000" stroke-width="2" stroke-opacity="0.200000" d="M315.407,-192.0583C321.1758,-194.0605 327.2866,-196.1387 333,-198 337.2263,-199.3768 341.6689,-200.7821 346.0862,-202.1532"/>
<polygon fill="#000000" fill-opacity="0.200000" stroke="#000000" stroke-width="2" stroke-opacity="0.200000" points="345.719,-204.2374 352.0713,-203.9959 346.9549,-200.2233 345.719,-204.2374"/>
</g>
<!-- src/components/GroupsList.tsx -->
<g id="node9" class="node">
<title>src/components/GroupsList.tsx</title>
<g id="a_node9"><a xlink:href="src/components/GroupsList.tsx" xlink:title="GroupsList.tsx">
<path fill="#bbfeff" stroke="#000000" d="M413.5,-192C413.5,-192 351.5,-192 351.5,-192 348.5,-192 345.5,-189 345.5,-186 345.5,-186 345.5,-180 345.5,-180 345.5,-177 348.5,-174 351.5,-174 351.5,-174 413.5,-174 413.5,-174 416.5,-174 419.5,-177 419.5,-180 419.5,-180 419.5,-186 419.5,-186 419.5,-189 416.5,-192 413.5,-192"/>
<text text-anchor="middle" x="382.5" y="-180.8" font-family="Helvetica,sans-Serif" font-size="9.00" fill="#000000">GroupsList.tsx</text>
</a>
</g>
</g>
<!-- src/App.tsx&#45;&gt;src/components/GroupsList.tsx -->
<g id="edge3" class="edge">
<title>src/App.tsx&#45;&gt;src/components/GroupsList.tsx</title>
<path fill="none" stroke="#000000" stroke-width="2" stroke-opacity="0.200000" d="M317.2528,-183C324.0807,-183 331.5773,-183 338.9803,-183"/>
<polygon fill="#000000" fill-opacity="0.200000" stroke="#000000" stroke-width="2" stroke-opacity="0.200000" points="339.16,-185.1001 345.16,-183 339.16,-180.9001 339.16,-185.1001"/>
</g>
<!-- src/components/ImagesList.tsx -->
<g id="node10" class="node">
<title>src/components/ImagesList.tsx</title>
<g id="a_node10"><a xlink:href="src/components/ImagesList.tsx" xlink:title="ImagesList.tsx">
<path fill="#bbfeff" stroke="#000000" d="M413.5,-252C413.5,-252 351.5,-252 351.5,-252 348.5,-252 345.5,-249 345.5,-246 345.5,-246 345.5,-240 345.5,-240 345.5,-237 348.5,-234 351.5,-234 351.5,-234 413.5,-234 413.5,-234 416.5,-234 419.5,-237 419.5,-240 419.5,-240 419.5,-246 419.5,-246 419.5,-249 416.5,-252 413.5,-252"/>
<text text-anchor="middle" x="382.5" y="-240.8" font-family="Helvetica,sans-Serif" font-size="9.00" fill="#000000">ImagesList.tsx</text>
</a>
</g>
</g>
<!-- src/App.tsx&#45;&gt;src/components/ImagesList.tsx -->
<g id="edge4" class="edge">
<title>src/App.tsx&#45;&gt;src/components/ImagesList.tsx</title>
<path fill="none" stroke="#000000" stroke-width="2" stroke-opacity="0.200000" d="M296.541,-192.2917C304.1751,-202.4738 317.7188,-218.6062 333,-228 335.1515,-229.3226 337.4278,-230.5356 339.7753,-231.6472"/>
<polygon fill="#000000" fill-opacity="0.200000" stroke="#000000" stroke-width="2" stroke-opacity="0.200000" points="339.0167,-233.607 345.3574,-234.0606 340.6835,-229.7519 339.0167,-233.607"/>
</g>
<!-- src/components/NotFound.tsx -->
<g id="node11" class="node">
<title>src/components/NotFound.tsx</title>
<g id="a_node11"><a xlink:href="src/components/NotFound.tsx" xlink:title="NotFound.tsx">
<path fill="#bbfeff" stroke="#000000" d="M412,-132C412,-132 353,-132 353,-132 350,-132 347,-129 347,-126 347,-126 347,-120 347,-120 347,-117 350,-114 353,-114 353,-114 412,-114 412,-114 415,-114 418,-117 418,-120 418,-120 418,-126 418,-126 418,-129 415,-132 412,-132"/>
<text text-anchor="middle" x="382.5" y="-120.8" font-family="Helvetica,sans-Serif" font-size="9.00" fill="#000000">NotFound.tsx</text>
</a>
</g>
</g>
<!-- src/App.tsx&#45;&gt;src/components/NotFound.tsx -->
<g id="edge5" class="edge">
<title>src/App.tsx&#45;&gt;src/components/NotFound.tsx</title>
<path fill="none" stroke="#000000" stroke-width="2" stroke-opacity="0.200000" d="M296.541,-173.7083C304.1751,-163.5262 317.7188,-147.3938 333,-138 335.5436,-136.4364 338.2615,-135.0259 341.0655,-133.7552"/>
<polygon fill="#000000" fill-opacity="0.200000" stroke="#000000" stroke-width="2" stroke-opacity="0.200000" points="342.1704,-135.5709 346.9137,-131.3387 340.5665,-131.6892 342.1704,-135.5709"/>
</g>
<!-- src/api/groups&#45;api.ts -->
<g id="node2" class="node">
<title>src/api/groups&#45;api.ts</title>
<g id="a_node2"><a xlink:href="src/api/groups-api.ts" xlink:title="groups&#45;api.ts">
<path fill="#ddfeff" stroke="#000000" d="M513,-42C513,-42 455,-42 455,-42 452,-42 449,-39 449,-36 449,-36 449,-30 449,-30 449,-27 452,-24 455,-24 455,-24 513,-24 513,-24 516,-24 519,-27 519,-30 519,-30 519,-36 519,-36 519,-39 516,-42 513,-42"/>
<text text-anchor="middle" x="484" y="-30.8" font-family="Helvetica,sans-Serif" font-size="9.00" fill="#000000">groups&#45;api.ts</text>
</a>
</g>
</g>
<!-- src/config.ts -->
<g id="node13" class="node">
<title>src/config.ts</title>
<g id="a_node13"><a xlink:href="src/config.ts" xlink:title="config.ts">
<path fill="#ddfeff" stroke="#000000" d="M595,-72C595,-72 553,-72 553,-72 550,-72 547,-69 547,-66 547,-66 547,-60 547,-60 547,-57 550,-54 553,-54 553,-54 595,-54 595,-54 598,-54 601,-57 601,-60 601,-60 601,-66 601,-66 601,-69 598,-72 595,-72"/>
<text text-anchor="middle" x="574" y="-60.8" font-family="Helvetica,sans-Serif" font-size="9.00" fill="#000000">config.ts</text>
</a>
</g>
</g>
<!-- src/api/groups&#45;api.ts&#45;&gt;src/config.ts -->
<g id="edge6" class="edge">
<title>src/api/groups&#45;api.ts&#45;&gt;src/config.ts</title>
<path fill="none" stroke="#000000" stroke-width="2" stroke-opacity="0.200000" d="M519.1382,-41.8014C525.7858,-43.6864 532.6452,-45.7837 539,-48 542.1211,-49.0885 545.3581,-50.324 548.5468,-51.6076"/>
<polygon fill="#000000" fill-opacity="0.200000" stroke="#000000" stroke-width="2" stroke-opacity="0.200000" points="547.8517,-53.5927 554.1986,-53.9486 549.4589,-49.7123 547.8517,-53.5927"/>
</g>
<!-- src/api/images&#45;api.ts -->
<g id="node3" class="node">
<title>src/api/images&#45;api.ts</title>
<g id="a_node3"><a xlink:href="src/api/images-api.ts" xlink:title="images&#45;api.ts">
<path fill="#ddfeff" stroke="#000000" d="M513.5,-72C513.5,-72 454.5,-72 454.5,-72 451.5,-72 448.5,-69 448.5,-66 448.5,-66 448.5,-60 448.5,-60 448.5,-57 451.5,-54 454.5,-54 454.5,-54 513.5,-54 513.5,-54 516.5,-54 519.5,-57 519.5,-60 519.5,-60 519.5,-66 519.5,-66 519.5,-69 516.5,-72 513.5,-72"/>
<text text-anchor="middle" x="484" y="-60.8" font-family="Helvetica,sans-Serif" font-size="9.00" fill="#000000">images&#45;api.ts</text>
</a>
</g>
</g>
<!-- src/api/images&#45;api.ts&#45;&gt;src/config.ts -->
<g id="edge7" class="edge">
<title>src/api/images&#45;api.ts&#45;&gt;src/config.ts</title>
<path fill="none" stroke="#000000" stroke-width="2" stroke-opacity="0.200000" d="M519.5704,-63C526.4921,-63 533.7255,-63 540.575,-63"/>
<polygon fill="#000000" fill-opacity="0.200000" stroke="#000000" stroke-width="2" stroke-opacity="0.200000" points="540.7375,-65.1001 546.7375,-63 540.7375,-60.9001 540.7375,-65.1001"/>
</g>
<!-- src/auth/Auth.js -->
<g id="node4" class="node">
<title>src/auth/Auth.js</title>
<g id="a_node4"><a xlink:href="src/auth/Auth.js" xlink:title="Auth.js">
<path fill="#ffffcc" stroke="#000000" d="M311,-279C311,-279 269,-279 269,-279 266,-279 263,-276 263,-273 263,-273 263,-267 263,-267 263,-264 266,-261 269,-261 269,-261 311,-261 311,-261 314,-261 317,-264 317,-267 317,-267 317,-273 317,-273 317,-276 314,-279 311,-279"/>
<text text-anchor="middle" x="290" y="-267.8" font-family="Helvetica,sans-Serif" font-size="9.00" fill="#000000">Auth.js</text>
</a>
</g>
</g>
<!-- src/auth/Auth.js&#45;&gt;src/config.ts -->
<g id="edge8" class="edge">
<title>src/auth/Auth.js&#45;&gt;src/config.ts</title>
<path fill="none" stroke="#000000" stroke-width="2" stroke-opacity="0.200000" d="M296.3129,-279.2796C303.7427,-289.2861 317.1038,-304.6362 333,-311 417.9973,-345.0275 469.8848,-371.0459 539,-311 556.7098,-295.6141 569.4338,-129.924 572.9924,-78.2798"/>
<polygon fill="#000000" fill-opacity="0.200000" stroke="#000000" stroke-width="2" stroke-opacity="0.200000" points="575.1049,-78.1657 573.416,-72.0373 570.9146,-77.8814 575.1049,-78.1657"/>
</g>
<!-- src/components/Callback.tsx -->
<g id="node5" class="node">
<title>src/components/Callback.tsx</title>
<g id="a_node5"><a xlink:href="src/components/Callback.tsx" xlink:title="Callback.tsx">
<path fill="#bbfeff" stroke="#000000" d="M409.5,-282C409.5,-282 355.5,-282 355.5,-282 352.5,-282 349.5,-279 349.5,-276 349.5,-276 349.5,-270 349.5,-270 349.5,-267 352.5,-264 355.5,-264 355.5,-264 409.5,-264 409.5,-264 412.5,-264 415.5,-267 415.5,-270 415.5,-270 415.5,-276 415.5,-276 415.5,-279 412.5,-282 409.5,-282"/>
<text text-anchor="middle" x="382.5" y="-270.8" font-family="Helvetica,sans-Serif" font-size="9.00" fill="#000000">Callback.tsx</text>
</a>
</g>
</g>
<!-- src/components/CreateGroup.tsx&#45;&gt;src/api/groups&#45;api.ts -->
<g id="edge9" class="edge">
<title>src/components/CreateGroup.tsx&#45;&gt;src/api/groups&#45;api.ts</title>
<path fill="none" stroke="#000000" stroke-width="2" stroke-opacity="0.200000" d="M417.5277,-143.8032C419.9537,-142.1742 422.1611,-140.2569 424,-138 449.5291,-106.6687 410.8818,-78.8419 437,-48 438.9062,-45.749 441.1501,-43.8323 443.6063,-42.2005"/>
<polygon fill="#000000" fill-opacity="0.200000" stroke="#000000" stroke-width="2" stroke-opacity="0.200000" points="444.695,-43.9977 448.906,-39.2355 442.6444,-40.3323 444.695,-43.9977"/>
</g>
<!-- src/components/CreateImage.tsx&#45;&gt;src/api/images&#45;api.ts -->
<g id="edge10" class="edge">
<title>src/components/CreateImage.tsx&#45;&gt;src/api/images&#45;api.ts</title>
<path fill="none" stroke="#000000" stroke-width="2" stroke-opacity="0.200000" d="M417.5461,-203.818C419.968,-202.1859 422.1695,-200.2637 424,-198 450.7958,-164.8626 416.5375,-140.3816 437,-103 443.0773,-91.8977 453.5532,-82.5246 463.0743,-75.6488"/>
<polygon fill="#000000" fill-opacity="0.200000" stroke="#000000" stroke-width="2" stroke-opacity="0.200000" points="464.4855,-77.2265 468.2317,-72.0907 462.1004,-73.7694 464.4855,-77.2265"/>
</g>
<!-- src/components/Group.tsx -->
<g id="node8" class="node">
<title>src/components/Group.tsx</title>
<g id="a_node8"><a xlink:href="src/components/Group.tsx" xlink:title="Group.tsx">
<path fill="#bbfeff" stroke="#000000" d="M506,-192C506,-192 462,-192 462,-192 459,-192 456,-189 456,-186 456,-186 456,-180 456,-180 456,-177 459,-174 462,-174 462,-174 506,-174 506,-174 509,-174 512,-177 512,-180 512,-180 512,-186 512,-186 512,-189 509,-192 506,-192"/>
<text text-anchor="middle" x="484" y="-180.8" font-family="Helvetica,sans-Serif" font-size="9.00" fill="#000000">Group.tsx</text>
</a>
</g>
</g>
<!-- src/components/GroupsList.tsx&#45;&gt;src/api/groups&#45;api.ts -->
<g id="edge11" class="edge">
<title>src/components/GroupsList.tsx&#45;&gt;src/api/groups&#45;api.ts</title>
<path fill="none" stroke="#000000" stroke-width="2" stroke-opacity="0.200000" d="M417.6156,-173.8735C420.0225,-172.2293 422.2015,-170.2892 424,-168 457.1419,-125.8166 403.0646,-89.5478 437,-48 438.8659,-45.7155 441.0803,-43.7742 443.5157,-42.1251"/>
<polygon fill="#000000" fill-opacity="0.200000" stroke="#000000" stroke-width="2" stroke-opacity="0.200000" points="444.6031,-43.9227 448.7842,-39.1342 442.5296,-40.2702 444.6031,-43.9227"/>
</g>
<!-- src/components/GroupsList.tsx&#45;&gt;src/components/Group.tsx -->
<g id="edge12" class="edge">
<title>src/components/GroupsList.tsx&#45;&gt;src/components/Group.tsx</title>
<path fill="none" stroke="#000000" stroke-width="2" stroke-opacity="0.200000" d="M419.7185,-183C429.465,-183 439.9298,-183 449.5262,-183"/>
<polygon fill="#000000" fill-opacity="0.200000" stroke="#000000" stroke-width="2" stroke-opacity="0.200000" points="449.6908,-185.1001 455.6908,-183 449.6907,-180.9001 449.6908,-185.1001"/>
</g>
<!-- src/components/ImagesList.tsx&#45;&gt;src/api/images&#45;api.ts -->
<g id="edge13" class="edge">
<title>src/components/ImagesList.tsx&#45;&gt;src/api/images&#45;api.ts</title>
<path fill="none" stroke="#000000" stroke-width="2" stroke-opacity="0.200000" d="M417.6263,-233.8818C420.0308,-232.2358 422.2064,-230.293 424,-228 441.2065,-206.0025 423.9884,-127.7113 437,-103 442.8969,-91.8008 453.3587,-82.4202 462.9173,-75.5645"/>
<polygon fill="#000000" fill-opacity="0.200000" stroke="#000000" stroke-width="2" stroke-opacity="0.200000" points="464.3329,-77.1405 468.0999,-72.0199 461.9619,-73.6737 464.3329,-77.1405"/>
</g>
<!-- src/components/UdagramImage.tsx -->
<g id="node12" class="node">
<title>src/components/UdagramImage.tsx</title>
<g id="a_node12"><a xlink:href="src/components/UdagramImage.tsx" xlink:title="UdagramImage.tsx">
<path fill="#bbfeff" stroke="#000000" d="M525,-252C525,-252 443,-252 443,-252 440,-252 437,-249 437,-246 437,-246 437,-240 437,-240 437,-237 440,-234 443,-234 443,-234 525,-234 525,-234 528,-234 531,-237 531,-240 531,-240 531,-246 531,-246 531,-249 528,-252 525,-252"/>
<text text-anchor="middle" x="484" y="-240.8" font-family="Helvetica,sans-Serif" font-size="9.00" fill="#000000">UdagramImage.tsx</text>
</a>
</g>
</g>
<!-- src/components/ImagesList.tsx&#45;&gt;src/components/UdagramImage.tsx -->
<g id="edge14" class="edge">
<title>src/components/ImagesList.tsx&#45;&gt;src/components/UdagramImage.tsx</title>
<path fill="none" stroke="#000000" stroke-width="2" stroke-opacity="0.200000" d="M419.7185,-243C423.2706,-243 426.918,-243 430.5841,-243"/>
<polygon fill="#000000" fill-opacity="0.200000" stroke="#000000" stroke-width="2" stroke-opacity="0.200000" points="430.7578,-245.1001 436.7578,-243 430.7578,-240.9001 430.7578,-245.1001"/>
</g>
<!-- src/index.css -->
<g id="node14" class="node">
<title>src/index.css</title>
<g id="a_node14"><a xlink:href="src/index.css" xlink:title="index.css">
<path fill="#ffffcc" stroke="#000000" d="M226.5,-138C226.5,-138 183.5,-138 183.5,-138 180.5,-138 177.5,-135 177.5,-132 177.5,-132 177.5,-126 177.5,-126 177.5,-123 180.5,-120 183.5,-120 183.5,-120 226.5,-120 226.5,-120 229.5,-120 232.5,-123 232.5,-126 232.5,-126 232.5,-132 232.5,-132 232.5,-135 229.5,-138 226.5,-138"/>
<text text-anchor="middle" x="205" y="-126.8" font-family="Helvetica,sans-Serif" font-size="9.00" fill="#000000">index.css</text>
</a>
</g>
</g>
<!-- src/index.tsx -->
<g id="node15" class="node">
<title>src/index.tsx</title>
<g id="a_node15"><a xlink:href="src/index.tsx" xlink:title="index.tsx">
<path fill="#bbfeff" stroke="#000000" d="M106.5,-138C106.5,-138 64.5,-138 64.5,-138 61.5,-138 58.5,-135 58.5,-132 58.5,-132 58.5,-126 58.5,-126 58.5,-123 61.5,-120 64.5,-120 64.5,-120 106.5,-120 106.5,-120 109.5,-120 112.5,-123 112.5,-126 112.5,-126 112.5,-132 112.5,-132 112.5,-135 109.5,-138 106.5,-138"/>
<text text-anchor="middle" x="85.5" y="-126.8" font-family="Helvetica,sans-Serif" font-size="9.00" fill="#000000">index.tsx</text>
</a>
</g>
</g>
<!-- src/index.tsx&#45;&gt;src/index.css -->
<g id="edge15" class="edge">
<title>src/index.tsx&#45;&gt;src/index.css</title>
<path fill="none" stroke="#000000" stroke-width="2" stroke-opacity="0.200000" d="M112.6164,-129C129.9396,-129 152.542,-129 171.054,-129"/>
<polygon fill="#000000" fill-opacity="0.200000" stroke="#000000" stroke-width="2" stroke-opacity="0.200000" points="171.1617,-131.1001 177.1616,-129 171.1616,-126.9001 171.1617,-131.1001"/>
</g>
<!-- src/routing.tsx -->
<g id="node17" class="node">
<title>src/routing.tsx</title>
<g id="a_node17"><a xlink:href="src/routing.tsx" xlink:title="routing.tsx">
<path fill="#bbfeff" stroke="#000000" d="M228.5,-192C228.5,-192 181.5,-192 181.5,-192 178.5,-192 175.5,-189 175.5,-186 175.5,-186 175.5,-180 175.5,-180 175.5,-177 178.5,-174 181.5,-174 181.5,-174 228.5,-174 228.5,-174 231.5,-174 234.5,-177 234.5,-180 234.5,-180 234.5,-186 234.5,-186 234.5,-189 231.5,-192 228.5,-192"/>
<text text-anchor="middle" x="205" y="-180.8" font-family="Helvetica,sans-Serif" font-size="9.00" fill="#000000">routing.tsx</text>
</a>
</g>
</g>
<!-- src/index.tsx&#45;&gt;src/routing.tsx -->
<g id="edge16" class="edge">
<title>src/index.tsx&#45;&gt;src/routing.tsx</title>
<path fill="none" stroke="#000000" stroke-width="2" stroke-opacity="0.200000" d="M112.506,-131.4138C125.7773,-133.3435 141.728,-136.8043 155,-143 168.896,-149.487 182.335,-160.5983 191.7743,-169.4661"/>
<polygon fill="#000000" fill-opacity="0.200000" stroke="#000000" stroke-width="2" stroke-opacity="0.200000" points="190.5522,-171.2053 196.3271,-173.8626 193.4697,-168.184 190.5522,-171.2053"/>
</g>
<!-- src/serviceWorker.ts -->
<g id="node18" class="node">
<title>src/serviceWorker.ts</title>
<g id="a_node18"><a xlink:href="src/serviceWorker.ts" xlink:title="serviceWorker.ts">
<path fill="#ddfeff" stroke="#000000" d="M241,-222C241,-222 169,-222 169,-222 166,-222 163,-219 163,-216 163,-216 163,-210 163,-210 163,-207 166,-204 169,-204 169,-204 241,-204 241,-204 244,-204 247,-207 247,-210 247,-210 247,-216 247,-216 247,-219 244,-222 241,-222"/>
<text text-anchor="middle" x="205" y="-210.8" font-family="Helvetica,sans-Serif" font-size="9.00" fill="#000000">serviceWorker.ts</text>
</a>
</g>
</g>
<!-- src/index.tsx&#45;&gt;src/serviceWorker.ts -->
<g id="edge17" class="edge">
<title>src/index.tsx&#45;&gt;src/serviceWorker.ts</title>
<path fill="none" stroke="#000000" stroke-width="2" stroke-opacity="0.200000" d="M112.8143,-127.4531C127.3329,-128.1726 144.3358,-131.74 155,-143 171.9858,-160.9348 147.3507,-178.8879 163,-198 163.5825,-198.7114 164.2013,-199.3891 164.8519,-200.0346"/>
<polygon fill="#000000" fill-opacity="0.200000" stroke="#000000" stroke-width="2" stroke-opacity="0.200000" points="163.5725,-201.7008 169.5566,-203.8458 166.2162,-198.4372 163.5725,-201.7008"/>
</g>
<!-- src/react&#45;app&#45;env.d.ts -->
<g id="node16" class="node">
<title>src/react&#45;app&#45;env.d.ts</title>
<g id="a_node16"><a xlink:href="src/react-app-env.d.ts" xlink:title="react&#45;app&#45;env.d.ts">
<path fill="#ccffcc" stroke="#000000" d="M124.5,-71C124.5,-71 46.5,-71 46.5,-71 43.5,-71 40.5,-68 40.5,-65 40.5,-65 40.5,-59 40.5,-59 40.5,-56 43.5,-53 46.5,-53 46.5,-53 124.5,-53 124.5,-53 127.5,-53 130.5,-56 130.5,-59 130.5,-59 130.5,-65 130.5,-65 130.5,-68 127.5,-71 124.5,-71"/>
<text text-anchor="middle" x="85.5" y="-59.8" font-family="Helvetica,sans-Serif" font-size="9.00" fill="#000000">react&#45;app&#45;env.d.ts</text>
</a>
</g>
</g>
<!-- src/routing.tsx&#45;&gt;src/App.tsx -->
<g id="edge18" class="edge">
<title>src/routing.tsx&#45;&gt;src/App.tsx</title>
<path fill="none" stroke="#000000" stroke-width="2" stroke-opacity="0.200000" d="M234.7289,-183C241.91,-183 249.6274,-183 256.9505,-183"/>
<polygon fill="#000000" fill-opacity="0.200000" stroke="#000000" stroke-width="2" stroke-opacity="0.200000" points="256.9887,-185.1001 262.9887,-183 256.9886,-180.9001 256.9887,-185.1001"/>
</g>
<!-- src/routing.tsx&#45;&gt;src/auth/Auth.js -->
<g id="edge19" class="edge">
<title>src/routing.tsx&#45;&gt;src/auth/Auth.js</title>
<path fill="none" stroke="#000000" stroke-width="2" stroke-opacity="0.200000" d="M234.7462,-188.9634C239.4312,-191.1108 243.7817,-194.0305 247,-198 263.6654,-218.5551 238.4646,-236.3402 255,-257 255.7898,-257.9868 256.6624,-258.8988 257.6006,-259.7415"/>
<polygon fill="#000000" fill-opacity="0.200000" stroke="#000000" stroke-width="2" stroke-opacity="0.200000" points="256.6502,-261.6422 262.758,-263.4044 259.0822,-258.218 256.6502,-261.6422"/>
</g>
<!-- src/routing.tsx&#45;&gt;src/components/Callback.tsx -->
<g id="edge20" class="edge">
<title>src/routing.tsx&#45;&gt;src/components/Callback.tsx</title>
<path fill="none" stroke="#000000" stroke-width="2" stroke-opacity="0.200000" d="M233.4123,-192.0742C238.0349,-193.8542 242.7103,-195.8451 247,-198 284.2307,-216.7023 292.7794,-223.5854 325,-250 328.8886,-253.1879 328.6867,-255.4156 333,-258 336.2857,-259.9687 339.8508,-261.6978 343.5109,-263.2125"/>
<polygon fill="#000000" fill-opacity="0.200000" stroke="#000000" stroke-width="2" stroke-opacity="0.200000" points="342.9596,-265.2496 349.3142,-265.4199 344.4528,-261.3239 342.9596,-265.2496"/>
</g>
<!-- src/types/GroupModel.ts -->
<g id="node19" class="node">
<title>src/types/GroupModel.ts</title>
<g id="a_node19"><a xlink:href="src/types/GroupModel.ts" xlink:title="GroupModel.ts">
<path fill="#ccffcc" stroke="#000000" d="M118,-292C118,-292 53,-292 53,-292 50,-292 47,-289 47,-286 47,-286 47,-280 47,-280 47,-277 50,-274 53,-274 53,-274 118,-274 118,-274 121,-274 124,-277 124,-280 124,-280 124,-286 124,-286 124,-289 121,-292 118,-292"/>
<text text-anchor="middle" x="85.5" y="-280.8" font-family="Helvetica,sans-Serif" font-size="9.00" fill="#000000">GroupModel.ts</text>
</a>
</g>
</g>
<!-- src/types/GroupUploadInfo.ts -->
<g id="node20" class="node">
<title>src/types/GroupUploadInfo.ts</title>
<g id="a_node20"><a xlink:href="src/types/GroupUploadInfo.ts" xlink:title="GroupUploadInfo.ts">
<path fill="#ccffcc" stroke="#000000" d="M127.5,-262C127.5,-262 43.5,-262 43.5,-262 40.5,-262 37.5,-259 37.5,-256 37.5,-256 37.5,-250 37.5,-250 37.5,-247 40.5,-244 43.5,-244 43.5,-244 127.5,-244 127.5,-244 130.5,-244 133.5,-247 133.5,-250 133.5,-250 133.5,-256 133.5,-256 133.5,-259 130.5,-262 127.5,-262"/>
<text text-anchor="middle" x="85.5" y="-250.8" font-family="Helvetica,sans-Serif" font-size="9.00" fill="#000000">GroupUploadInfo.ts</text>
</a>
</g>
</g>
<!-- src/types/ImageModel.ts -->
<g id="node21" class="node">
<title>src/types/ImageModel.ts</title>
<g id="a_node21"><a xlink:href="src/types/ImageModel.ts" xlink:title="ImageModel.ts">
<path fill="#ccffcc" stroke="#000000" d="M118,-232C118,-232 53,-232 53,-232 50,-232 47,-229 47,-226 47,-226 47,-220 47,-220 47,-217 50,-214 53,-214 53,-214 118,-214 118,-214 121,-214 124,-217 124,-220 124,-220 124,-226 124,-226 124,-229 121,-232 118,-232"/>
<text text-anchor="middle" x="85.5" y="-220.8" font-family="Helvetica,sans-Serif" font-size="9.00" fill="#000000">ImageModel.ts</text>
</a>
</g>
</g>
<!-- src/types/ImageUploadInfo.ts -->
<g id="node22" class="node">
<title>src/types/ImageUploadInfo.ts</title>
<g id="a_node22"><a xlink:href="src/types/ImageUploadInfo.ts" xlink:title="ImageUploadInfo.ts">
<path fill="#ccffcc" stroke="#000000" d="M127.5,-202C127.5,-202 43.5,-202 43.5,-202 40.5,-202 37.5,-199 37.5,-196 37.5,-196 37.5,-190 37.5,-190 37.5,-187 40.5,-184 43.5,-184 43.5,-184 127.5,-184 127.5,-184 130.5,-184 133.5,-187 133.5,-190 133.5,-190 133.5,-196 133.5,-196 133.5,-199 130.5,-202 127.5,-202"/>
<text text-anchor="middle" x="85.5" y="-190.8" font-family="Helvetica,sans-Serif" font-size="9.00" fill="#000000">ImageUploadInfo.ts</text>
</a>
</g>
</g>
<!-- src/types/ImageUploadResponse.ts -->
<g id="node23" class="node">
<title>src/types/ImageUploadResponse.ts</title>
<g id="a_node23"><a xlink:href="src/types/ImageUploadResponse.ts" xlink:title="ImageUploadResponse.ts">
<path fill="#ccffcc" stroke="#000000" d="M141,-172C141,-172 30,-172 30,-172 27,-172 24,-169 24,-166 24,-166 24,-160 24,-160 24,-157 27,-154 30,-154 30,-154 141,-154 141,-154 144,-154 147,-157 147,-160 147,-160 147,-166 147,-166 147,-169 144,-172 141,-172"/>
<text text-anchor="middle" x="85.5" y="-160.8" font-family="Helvetica,sans-Serif" font-size="9.00" fill="#000000">ImageUploadResponse.ts</text>
</a>
</g>
</g>
</g>
</svg>
